<svg aria-hidden="true" style="position: absolute; width: 0; height: 0; overflow: hidden;" version="1.1" xmlns="http://www.w3.org/2000/svg" xmlns:xlink="http://www.w3.org/1999/xlink">
<defs>
<symbol id="icon-facebook" viewBox="0 0 32 32">
<path  opacity="0.78" d="M17.864 27.996v-10.928h3.686l0.548-4.279h-4.233v-2.726c0-1.235 0.344-2.080 2.116-2.080h2.246v-3.815c-0.952-0.108-2.056-0.17-3.174-0.17-0.041 0-0.081 0-0.122 0l0.006-0c-3.258 0-5.496 1.99-5.496 5.641v3.14h-3.662v4.279h3.671v10.936h4.416z"></path>
</symbol>
<symbol id="icon-google" viewBox="0 0 99 32">
<path fill="#fff" style="fill: var(--color1, #fff)" opacity="0.2" d="M95.442 19.556l2.733 1.804c-0.887 1.293-3.009 3.512-6.677 3.512-4.554 0-7.946-3.489-7.946-7.927 0-4.723 3.428-7.927 7.563-7.927 4.159 0 6.197 3.275 6.856 5.043l0.36 0.902-10.715 4.39c0.814 1.59 2.086 2.397 3.883 2.397 1.798 0 3.044-0.878 3.944-2.195zM87.040 16.697l7.155-2.943c-0.396-0.985-1.57-1.685-2.973-1.685-1.786 0-4.267 1.566-4.183 4.627zM78.386 0.939h3.452v23.209h-3.452v-23.209zM72.944 9.637h3.332v14.096c0 5.85-3.487 8.259-7.611 8.259-3.883 0-6.22-2.587-7.095-4.687l3.056-1.258c0.551 1.294 1.882 2.825 4.039 2.825 2.649 0 4.279-1.626 4.279-4.664v-1.139h-0.12c-0.791 0.949-2.302 1.803-4.219 1.803-4.003 0-7.671-3.453-7.671-7.902 0-4.474 3.668-7.962 7.671-7.962 1.906 0 3.428 0.843 4.219 1.768h0.12v-1.138zM73.184 16.97c0-2.8-1.882-4.841-4.279-4.841-2.421 0-4.459 2.041-4.459 4.841 0 2.765 2.038 4.77 4.459 4.77 2.397 0.012 4.279-2.005 4.279-4.77zM41.985 16.91c0 4.568-3.595 7.927-8.006 7.927s-8.006-3.369-8.006-7.927c0-4.592 3.595-7.938 8.006-7.938s8.006 3.346 8.006 7.938zM38.485 16.91c0-2.847-2.086-4.806-4.507-4.806s-4.506 1.958-4.506 4.806c0 2.824 2.086 4.805 4.506 4.805 2.422 0 4.507-1.982 4.507-4.806zM59.472 16.946c0 4.568-3.595 7.926-8.006 7.926s-8.006-3.358-8.006-7.926c0-4.592 3.595-7.927 8.006-7.927s8.006 3.322 8.006 7.927zM55.96 16.946c0-2.848-2.086-4.806-4.507-4.806s-4.506 1.958-4.506 4.806c0 2.824 2.086 4.806 4.506 4.806 2.433 0 4.507-1.993 4.507-4.806zM12.812 21.396c-5.022 0-8.954-4.011-8.954-8.983s3.932-8.983 8.954-8.983c2.709 0 4.686 1.056 6.149 2.409l2.409-2.386c-2.038-1.934-4.759-3.406-8.558-3.406-6.879 0-12.668 5.554-12.668 12.365s5.789 12.364 12.668 12.364c3.716 0 6.521-1.21 8.714-3.465 2.253-2.231 2.949-5.363 2.949-7.903 0-0.795-0.096-1.614-0.204-2.219h-11.459v3.299h8.162c-0.24 2.065-0.899 3.477-1.87 4.438-1.175 1.175-3.032 2.468-6.293 2.468z"></path>
</symbol>
<symbol id="icon-grommet-icons_figma" viewBox="0 0 32 32">
<path fill="#19bcfe" style="fill: var(--color2, #19bcfe)" opacity="0.78" d="M21.334 21.334c2.945 0 5.333-2.388 5.333-5.334s-2.387-5.334-5.333-5.334-5.334 2.389-5.334 5.334 2.388 5.334 5.334 5.334z"></path>
<path fill="#09cf83" style="fill: var(--color3, #09cf83)" opacity="0.78" d="M10.666 32c2.946 0 5.334-2.388 5.334-5.334v0-5.333h-5.334c-0.015-0-0.033-0-0.052-0-2.946 0-5.333 2.388-5.333 5.334s2.388 5.334 5.333 5.334c0.018 0 0.036-0 0.054-0l-0.003 0z"></path>
<path fill="#a259ff" style="fill: var(--color4, #a259ff)" opacity="0.78" d="M10.666 21.334h5.334v-10.667h-5.334c-2.946 0-5.333 2.388-5.333 5.333s2.388 5.334 5.333 5.334v0z"></path>
<path fill="#f24e1e" style="fill: var(--color5, #f24e1e)" opacity="0.78" d="M10.666 10.666h5.334v-10.666h-5.334c-0.015-0-0.033-0-0.052-0-2.946 0-5.333 2.388-5.333 5.333s2.388 5.334 5.333 5.334c0.018 0 0.036-0 0.054-0l-0.003 0z"></path>
<path fill="#ff7262" style="fill: var(--color6, #ff7262)" opacity="0.78" d="M21.334 10.666h-5.334v-10.666h5.334c2.923 0.029 5.282 2.406 5.282 5.333s-2.359 5.304-5.279 5.333l-0.003 0z"></path>
</symbol>
<symbol id="icon-grommet-icons_slack" viewBox="0 0 33 32">
<path fill="#e01e5a" style="fill: var(--color7, #e01e5a)" opacity="0.78" d="M6.836 20.11c0 0.439-0.088 0.873-0.258 1.279-0.181 0.423-0.431 0.783-0.738 1.084l-0.001 0.001c-0.309 0.303-0.676 0.548-1.082 0.716l-0.023 0.008c-0.384 0.16-0.831 0.253-1.299 0.253-0.002 0-0.003 0-0.005 0h0c-0.447 0-0.89-0.087-1.303-0.255-0.429-0.177-0.796-0.422-1.106-0.725l0.001 0.001c-0.307-0.302-0.556-0.662-0.729-1.063l-0.008-0.022c-0.163-0.377-0.259-0.816-0.259-1.278 0-0 0-0.001 0-0.001v0c0-0.439 0.087-0.874 0.259-1.28 0.181-0.422 0.43-0.783 0.737-1.084l0.001-0.001c0.309-0.303 0.676-0.548 1.082-0.716l0.023-0.008c0.384-0.16 0.831-0.253 1.299-0.253 0.001 0 0.003 0 0.004 0h3.405v3.343h-0.001zM8.538 20.11c0-0.439 0.088-0.875 0.258-1.28 0.181-0.423 0.43-0.783 0.737-1.084l0.001-0c0.309-0.303 0.676-0.548 1.082-0.716l0.023-0.008c0.384-0.16 0.831-0.253 1.299-0.253 0.001 0 0.003 0 0.004 0h-0c0.447-0 0.89 0.085 1.303 0.253 0.429 0.177 0.796 0.422 1.106 0.726l-0.001-0c0.308 0.302 0.557 0.662 0.73 1.063l0.008 0.022c0.171 0.405 0.258 0.84 0.258 1.28v8.357c0 0.439-0.088 0.874-0.258 1.28-0.181 0.423-0.43 0.783-0.737 1.084l-0.001 0.001c-0.309 0.303-0.676 0.548-1.082 0.716l-0.023 0.008c-0.384 0.16-0.831 0.253-1.299 0.253-0.001 0-0.003 0-0.004 0h0c-0.447 0-0.89-0.086-1.303-0.254-0.429-0.177-0.796-0.422-1.106-0.725l0.001 0.001c-0.308-0.302-0.557-0.662-0.729-1.063l-0.008-0.022c-0.163-0.377-0.258-0.816-0.258-1.278 0-0.001 0-0.001 0-0.002v0-8.357z"></path>
<path fill="#36c5f0" style="fill: var(--color8, #36c5f0)" opacity="0.78" d="M11.943 6.687c-0.447 0-0.89-0.086-1.303-0.254-0.429-0.177-0.796-0.422-1.106-0.726l0.001 0c-0.308-0.302-0.557-0.662-0.73-1.063l-0.008-0.022c-0.163-0.377-0.258-0.816-0.258-1.277 0-0.001 0-0.002 0-0.003v0c0-0.44 0.088-0.874 0.258-1.28 0.181-0.423 0.43-0.783 0.737-1.085l0.001-0c0.309-0.303 0.676-0.548 1.082-0.716l0.023-0.008c0.384-0.16 0.831-0.254 1.299-0.254 0.001 0 0.002 0 0.003 0h-0c0.447 0 0.89 0.086 1.303 0.254 0.429 0.177 0.796 0.422 1.106 0.726l-0.001-0c0.308 0.302 0.557 0.662 0.73 1.063l0.008 0.022c0.171 0.405 0.258 0.84 0.258 1.279v3.345l-3.405-0.001zM11.943 8.383c0.447 0 0.89 0.086 1.303 0.254 0.429 0.177 0.796 0.422 1.106 0.726l-0.001-0.001c0.308 0.302 0.557 0.662 0.73 1.063l0.008 0.022c0.171 0.405 0.258 0.84 0.258 1.279s-0.088 0.874-0.258 1.28c-0.181 0.423-0.43 0.783-0.737 1.085l-0.001 0.001c-0.309 0.303-0.676 0.547-1.082 0.716l-0.023 0.008c-0.385 0.161-0.832 0.254-1.3 0.254-0.001 0-0.002 0-0.003 0h-8.538c-0.447 0-0.89-0.086-1.303-0.254-0.429-0.177-0.796-0.422-1.106-0.725l0.001 0.001c-0.307-0.302-0.556-0.662-0.729-1.063l-0.008-0.022c-0.164-0.378-0.259-0.818-0.259-1.28s0.095-0.901 0.267-1.3l-0.008 0.021c0.181-0.423 0.43-0.783 0.737-1.084l0.001-0.001c0.309-0.303 0.676-0.548 1.082-0.716l0.023-0.008c0.385-0.161 0.832-0.254 1.301-0.254 0.001 0 0.002 0 0.003 0l8.538-0.001z"></path>
<path fill="#2eb67d" style="fill: var(--color9, #2eb67d)" opacity="0.78" d="M25.587 11.726c0-0.439 0.087-0.874 0.259-1.28 0.181-0.423 0.43-0.783 0.737-1.084l0.001-0.001c0.309-0.303 0.676-0.548 1.083-0.716l0.023-0.008c0.384-0.16 0.831-0.254 1.299-0.254 0.002 0 0.003 0 0.005 0h-0c0.448 0 0.89 0.086 1.303 0.254 0.429 0.177 0.796 0.422 1.106 0.726l-0.001-0.001c0.308 0.302 0.557 0.662 0.729 1.063l0.008 0.022c0.171 0.405 0.259 0.84 0.258 1.279s-0.087 0.874-0.258 1.28c-0.181 0.423-0.43 0.783-0.737 1.085l-0.001 0.001c-0.309 0.303-0.676 0.547-1.082 0.716l-0.023 0.008c-0.385 0.161-0.832 0.254-1.3 0.254-0.001 0-0.002 0-0.003 0h-3.405v-3.343zM23.884 11.726c0 0.439-0.087 0.874-0.258 1.28-0.181 0.423-0.43 0.783-0.737 1.085l-0.001 0.001c-0.309 0.303-0.676 0.547-1.082 0.716l-0.023 0.008c-0.385 0.161-0.832 0.254-1.3 0.254-0.001 0-0.002 0-0.003 0h0c-0.001 0-0.003 0-0.005 0-0.468 0-0.915-0.093-1.322-0.262l0.023 0.008c-0.429-0.177-0.796-0.422-1.106-0.725l0.001 0.001c-0.308-0.302-0.557-0.662-0.73-1.063l-0.008-0.022c-0.163-0.377-0.259-0.816-0.259-1.278 0-0.001 0-0.002 0-0.002v0-8.383c0-0.439 0.087-0.874 0.259-1.28 0.181-0.423 0.431-0.783 0.738-1.084l0.001-0.001c0.309-0.303 0.676-0.547 1.082-0.716l0.023-0.008c0.384-0.16 0.831-0.254 1.299-0.254 0.002 0 0.003 0 0.005 0h-0c0.447 0 0.89 0.086 1.303 0.254 0.429 0.177 0.796 0.422 1.106 0.726l-0.001-0c0.308 0.302 0.557 0.662 0.73 1.063l0.008 0.022c0.171 0.405 0.259 0.84 0.258 1.279v8.383z"></path>
<path fill="#ecb22e" style="fill: var(--color10, #ecb22e)" opacity="0.78" d="M20.48 25.123c0.448 0 0.89 0.086 1.303 0.254 0.429 0.177 0.796 0.422 1.106 0.725l-0.001-0.001c0.308 0.302 0.557 0.662 0.729 1.063l0.008 0.022c0.171 0.405 0.259 0.84 0.259 1.279 0 0.001 0 0.002 0 0.003 0 0.461-0.095 0.9-0.266 1.298l0.008-0.021c-0.181 0.423-0.43 0.783-0.737 1.084l-0 0c-0.309 0.303-0.676 0.548-1.082 0.717l-0.023 0.008c-0.385 0.161-0.832 0.254-1.301 0.254-0.001 0-0.002 0-0.003 0h0c-0.448 0-0.89-0.086-1.304-0.254-0.429-0.177-0.796-0.422-1.106-0.726l0.001 0c-0.308-0.302-0.557-0.662-0.729-1.063l-0.008-0.022c-0.163-0.377-0.258-0.816-0.258-1.277 0-0.001 0-0.002 0-0.003v0-3.343h3.404zM20.48 23.453c-0.447 0-0.89-0.086-1.303-0.254-0.429-0.177-0.796-0.422-1.106-0.725l0.001 0.001c-0.308-0.302-0.557-0.662-0.729-1.063l-0.008-0.022c-0.163-0.377-0.259-0.816-0.259-1.278 0-0.001 0-0.001 0-0.002v0c0-0.439 0.087-0.874 0.259-1.28 0.181-0.422 0.43-0.783 0.737-1.084l0.001-0.001c0.309-0.303 0.676-0.548 1.082-0.716l0.023-0.008c0.384-0.16 0.831-0.253 1.299-0.253 0.001 0 0.003 0 0.004 0h8.538c0.447-0 0.89 0.085 1.303 0.253 0.429 0.177 0.796 0.422 1.106 0.726l-0.001-0c0.308 0.302 0.557 0.662 0.73 1.063l0.008 0.022c0.171 0.405 0.258 0.84 0.258 1.28 0.001 0.439-0.087 0.873-0.258 1.279-0.181 0.423-0.43 0.783-0.737 1.084l-0.001 0c-0.309 0.303-0.676 0.548-1.082 0.717l-0.023 0.008c-0.384 0.16-0.831 0.253-1.299 0.253-0.001 0-0.003 0-0.004 0h-8.538z"></path>
</symbol>
<symbol id="icon-header-logo" viewBox="0 0 29 32">
<path fill="#fff" style="fill: var(--color1, #fff)" d="M15.948 7.907c-0.483 0-0.953 0.058-1.402 0.172 0.302-2.658 1.348-5.027 2.922-6.947l-0.019 0.023c6.288 0.776 11.108 6.086 11.108 12.521 0 0 0 0.001 0 0.001v-0 9.201c-0.228 0.014-0.495 0.022-0.764 0.022-4.979 0-9.32-2.729-11.609-6.773l-0.035-0.066h5.568v-2.385c-0.001-3.186-2.583-5.768-5.769-5.769h-0z"></path>
<path fill="#fff" style="fill: var(--color1, #fff)" d="M0.372 14.473c0.001-7.746 6.28-14.025 14.026-14.025 0.318 0 0.633 0.011 0.946 0.031l-0.042-0.002c-2.36 2.598-3.804 6.063-3.804 9.867 0 0.304 0.009 0.606 0.027 0.906l-0.002-0.041c-0.906 0.8-1.475 1.964-1.475 3.261 0 0.002 0 0.004 0 0.007v-0 0.967h2.349c2.068 5.644 7.491 9.673 13.853 9.673 0.74 0 1.466-0.054 2.177-0.16v5.964h-9.673v-5.804h-8.71v5.804h-9.671v-16.445z"></path>
</symbol>
<symbol id="icon-Illustration" viewBox="0 0 21 32">
<path fill="#000" style="fill: var(--color11, #000)" opacity="0.4" d="M12.033 9.16c-0.259-0.149-0.445-0.152-0.558-0.012-0.116 0.14-0.171 0.378-0.171 0.711v1.799c0 0.342-0.030 0.625-0.095 0.851-0.064 0.235-0.171 0.4-0.317 0.497-0.143 0.101-0.338 0.125-0.585 0.079-0.241-0.043-0.543-0.171-0.903-0.378l-0.171-0.101v-1.418l0.217 0.125c0.259 0.149 0.43 0.168 0.515 0.061 0.092-0.107 0.137-0.326 0.137-0.659v-1.586c0-0.415 0.040-0.741 0.122-0.979 0.079-0.241 0.241-0.393 0.482-0.461-0.241-0.345-0.403-0.686-0.482-1.019s-0.119-0.705-0.119-1.119v-1.586c0-0.332-0.046-0.607-0.137-0.817-0.085-0.207-0.259-0.387-0.515-0.537l-0.217-0.125v-1.418l0.171 0.101c0.36 0.207 0.662 0.43 0.903 0.665 0.247 0.238 0.442 0.488 0.585 0.756 0.142 0.249 0.252 0.538 0.314 0.844l0.003 0.019c0.064 0.299 0.095 0.619 0.095 0.961v1.799c0 0.332 0.058 0.637 0.171 0.909 0.116 0.271 0.302 0.485 0.558 0.631l-0.003 1.406z"></path>
<path fill="#000" style="fill: var(--color11, #000)" opacity="0.4" d="M5.501 3.948c0.259 0.149 0.445 0.152 0.558 0.012 0.116-0.14 0.171-0.378 0.171-0.711v-1.799c0-0.342 0.030-0.625 0.095-0.851 0.064-0.235 0.168-0.4 0.311-0.5 0.149-0.098 0.345-0.122 0.585-0.079 0.247 0.046 0.552 0.174 0.912 0.384l0.171 0.101v1.418l-0.216-0.125c-0.259-0.149-0.433-0.171-0.525-0.064-0.085 0.11-0.128 0.329-0.128 0.665v1.586c0 0.412-0.040 0.741-0.122 0.979-0.079 0.241-0.241 0.393-0.482 0.461 0.241 0.345 0.402 0.686 0.482 1.019s0.119 0.705 0.119 1.119v1.586c0 0.332 0.043 0.604 0.128 0.814 0.091 0.21 0.265 0.393 0.525 0.54l0.216 0.125v1.418l-0.171-0.101c-0.36-0.207-0.665-0.433-0.912-0.668-0.241-0.235-0.436-0.485-0.585-0.756-0.143-0.265-0.247-0.552-0.308-0.857-0.064-0.299-0.095-0.619-0.095-0.961v-1.799c0-0.332-0.058-0.637-0.171-0.909-0.116-0.271-0.302-0.485-0.558-0.631v-1.415z"></path>
<path fill="#000" style="fill: var(--color11, #000)" opacity="0.15" d="M12.915 0.392l6.438 3.718-0.003 15.435-6.438-3.715 0.003-15.438z"></path>
<path fill="#587298" style="fill: var(--color12, #587298)" d="M11.704 2.414l5.123 2.955v1.418l-5.123-2.955v-1.418z"></path>
<path fill="#000" style="fill: var(--color11, #000)" opacity="0.2" d="M13.753 8.98l4.855 2.803v4.291l-4.855-2.803v-4.291z"></path>
<path fill="#fff" style="fill: var(--color1, #fff)" opacity="0.15" d="M13.704 5.69l4.928 2.845v0.485l-4.928-2.845v-0.485zM13.704 6.666l4.26 2.458v0.485l-4.26-2.458v-0.485zM13.704 7.629l3.617 2.086v0.485l-3.617-2.086v-0.485z"></path>
<path fill="#000" style="fill: var(--color11, #000)" opacity="0.2" d="M12.915 0.392l6.438 3.718v2.068l-6.441-3.715 0.003-2.071z"></path>
<path fill="#fff" style="fill: var(--color1, #fff)" opacity="0.2" d="M14.522 2.369c0 0.314-0.183 0.461-0.409 0.329s-0.409-0.488-0.409-0.802 0.183-0.461 0.409-0.329c0.226 0.131 0.409 0.491 0.409 0.802z"></path>
<path fill="#000" style="fill: var(--color11, #000)" opacity="0.15" d="M1.314 5.119l19.816 11.437-0.003 15.444-19.816-11.437 0.003-15.444z"></path>
<path fill="#ea8c4f" style="fill: var(--color13, #ea8c4f)" d="M0 8.925l5.12 2.955v1.418l-5.12-2.952v-1.421z"></path>
<path fill="#fff" style="fill: var(--color1, #fff)" opacity="0.15" d="M2.65 12.823l11.369 6.563v0.485l-11.369-6.563v-0.485zM2.65 13.799l9.807 5.66v0.485l-9.807-5.66v-0.485zM2.65 14.766l8.347 4.819v0.485l-8.347-4.819v-0.485z"></path>
<path fill="#000" style="fill: var(--color11, #000)" opacity="0.2" d="M10.323 20.914l9.996 5.77v4.291l-9.996-5.77v-4.291z"></path>
<path fill="#fff" style="fill: var(--color1, #fff)" opacity="0.15" d="M11.076 22.198l1.506 0.869v1.418l-1.506-0.869v-1.418zM12.921 23.333l1.506 0.869v1.418l-1.506-0.869v-1.418zM14.775 24.385l1.506 0.869v1.418l-1.506-0.869v-1.418zM16.629 25.504l1.506 0.869v1.418l-1.506-0.869v-1.418z"></path>
<path fill="#000" style="fill: var(--color11, #000)" opacity="0.2" d="M0.79 15.248l8.322 4.803v4.291l-8.322-4.806v-4.288z"></path>
<path fill="#fff" style="fill: var(--color1, #fff)" opacity="0.15" d="M1.628 16.831l6.611 3.815v0.485l-6.611-3.815v-0.485zM1.628 17.806l5.294 3.056v0.485l-5.294-3.059v-0.482z"></path>
<path fill="#000" style="fill: var(--color11, #000)" opacity="0.2" d="M1.314 5.119l19.788 11.424v2.092l-19.788-11.421v-2.095z"></path>
<path fill="#fff" style="fill: var(--color1, #fff)" opacity="0.2" d="M3.47 7.41c0 0.314-0.183 0.461-0.409 0.329s-0.409-0.488-0.409-0.802c0-0.314 0.183-0.46 0.409-0.329s0.409 0.491 0.409 0.802z"></path>
</symbol>
<symbol id="icon-instagram" viewBox="0 0 32 32">
<path fill="#fff" style="fill: var(--color1, #fff)" opacity="0.78" d="M15.998 9.836c-3.405 0-6.166 2.761-6.166 6.166s2.761 6.166 6.166 6.166v0c3.405 0 6.166-2.761 6.166-6.166s-2.761-6.166-6.166-6.166v0zM15.998 20.004c-0.025 0.001-0.055 0.001-0.084 0.001-2.212 0-4.005-1.793-4.005-4.005s1.793-4.005 4.005-4.005c0.030 0 0.059 0 0.089 0.001l-0.004-0c2.176 0.047 3.921 1.822 3.921 4.004s-1.745 3.957-3.917 4.004l-0.004 0zM22.408 11.047c0.794 0 1.438-0.644 1.438-1.438s-0.644-1.438-1.438-1.438v0c-0.794 0-1.438 0.644-1.438 1.438s0.644 1.438 1.438 1.438v0z"></path>
<path fill="#fff" style="fill: var(--color1, #fff)" opacity="0.78" d="M27.378 8.148c-0.638-1.617-1.894-2.872-3.47-3.495l-0.042-0.014c-0.863-0.334-1.862-0.538-2.905-0.56l-0.009-0c-1.284-0.056-1.691-0.071-4.947-0.071s-3.674 0-4.947 0.071c-1.052 0.021-2.049 0.225-2.972 0.58l0.060-0.020c-1.617 0.636-2.874 1.892-3.497 3.468l-0.014 0.042c-0.334 0.864-0.537 1.863-0.558 2.907l-0 0.009c-0.057 1.282-0.075 1.689-0.075 4.946s0 3.671 0.075 4.947c0.022 1.053 0.225 2.052 0.579 2.976l-0.020-0.060c0.638 1.616 1.894 2.872 3.47 3.496l0.042 0.015c0.86 0.347 1.857 0.564 2.899 0.6l0.015 0c1.284 0.056 1.691 0.073 4.947 0.073s3.674 0 4.947-0.073c1.052-0.022 2.051-0.225 2.975-0.579l-0.060 0.020c1.616-0.639 2.872-1.895 3.497-3.469l0.015-0.042c0.334-0.864 0.537-1.862 0.558-2.906l0-0.009c0.057-1.283 0.075-1.689 0.075-4.947s0-3.671-0.075-4.947c-0.017-1.066-0.222-2.080-0.582-3.016l0.020 0.060zM25.753 20.857c-0.009 0.81-0.16 1.583-0.43 2.297l0.015-0.046c-0.414 1.052-1.231 1.868-2.256 2.272l-0.027 0.009c-0.661 0.253-1.424 0.404-2.222 0.414l-0.004 0c-1.267 0.059-1.624 0.074-4.872 0.074-3.251 0-3.582 0-4.874-0.074-0.802-0.010-1.565-0.161-2.27-0.429l0.045 0.015c-1.056-0.411-1.876-1.228-2.282-2.255l-0.009-0.027c-0.25-0.66-0.401-1.423-0.415-2.219l-0-0.006c-0.057-1.267-0.071-1.624-0.071-4.872 0-3.25 0-3.582 0.071-4.874 0.009-0.768 0.148-1.529 0.415-2.249 0.415-1.054 1.236-1.871 2.264-2.273l0.027-0.009c0.66-0.252 1.424-0.403 2.221-0.415l0.005-0c1.268-0.057 1.623-0.073 4.873-0.073s3.582 0 4.872 0.073c0.802 0.010 1.566 0.161 2.272 0.43l-0.045-0.015c1.052 0.414 1.869 1.231 2.273 2.256l0.009 0.027c0.262 0.713 0.403 1.466 0.414 2.225 0.058 1.268 0.072 1.624 0.072 4.874 0 3.248 0 3.597-0.057 4.872h-0.015v-0.002z"></path>
</symbol>
<symbol id="icon-logos_invision-icon" viewBox="0 0 33 32">
<path fill="#f06" style="fill: var(--color14, #f06)" opacity="0.78" d="M0 2c0-1.105 0.895-2 2-2v0h28.5c1.105 0 2 0.895 2 2v0 27.912c0 1.105-0.895 2-2 2v0h-28.5c-1.105 0-2-0.895-2-2v0-27.912z"></path>
<path fill="#fff" style="fill: var(--color1, #fff)" opacity="0.78" d="M11.059 10.269c1.028-0.015 1.851-0.842 1.841-1.851s-0.848-1.822-1.877-1.816c-1.028 0.005-1.859 0.825-1.859 1.834 0.001 0.243 0.050 0.483 0.146 0.707s0.236 0.427 0.412 0.598c0.177 0.171 0.385 0.305 0.615 0.396 0.229 0.091 0.475 0.136 0.722 0.133zM7.129 20.089c-0.103 0.412-0.163 0.887-0.167 1.375l-0 0.003c0 1.615 0.891 2.686 2.787 2.686 1.572 0 2.847-0.916 3.764-2.397l-0.56 2.209h3.12l1.785-7.020c0.445-1.78 1.308-2.703 2.619-2.703 1.031 0 1.672 0.63 1.672 1.67 0 0.014 0 0.031 0 0.049 0 0.334-0.051 0.656-0.145 0.959l0.006-0.023-0.919 3.229c-0.124 0.403-0.195 0.866-0.195 1.346 0 0.008 0 0.015 0 0.023v-0.001c0 1.532 0.919 2.655 2.842 2.655 1.645 0 2.955-1.039 3.679-3.529l-1.226-0.466c-0.613 1.669-1.143 1.971-1.56 1.971s-0.642-0.273-0.642-0.82c0.013-0.307 0.063-0.598 0.145-0.874l-0.006 0.025 0.893-3.146c0.201-0.646 0.304-1.319 0.307-1.995 0-2.354-1.45-3.582-3.206-3.582-1.645 0-3.316 1.456-4.152 2.989l0.612-2.752h-4.764l-0.669 2.425h2.231l-1.373 5.393c-1.079 2.354-3.060 2.392-3.309 2.337-0.408-0.090-0.668-0.242-0.668-0.766 0.012-0.424 0.078-0.845 0.195-1.252l2.090-8.143h-5.293l-0.668 2.425h2.201l-1.423 5.702z"></path>
</symbol>
<symbol id="icon-logos_sketch" viewBox="0 0 36 32">
<path fill="#fdb300" style="fill: var(--color15, #fdb300)" d="M17.965 0l-10.125 1.051-7.839 10.333 17.965 20.541 17.965-20.542-7.839-10.332-10.125-1.052z"></path>
<path fill="#eb6c00" style="fill: var(--color16, #eb6c00)" d="M0 11.384l17.965 20.542-10.688-20.542h-7.277zM28.653 11.384l-10.688 20.542 17.965-20.542h-7.277z"></path>
<path fill="#fdad00" style="fill: var(--color17, #fdad00)" d="M7.277 11.384l10.688 20.542 10.689-20.542h-21.377z"></path>
<path fill="#fdd231" style="fill: var(--color18, #fdd231)" d="M7.839 1.051l-0.564 10.333 10.689-11.384-10.125 1.051zM28.653 11.384l-0.563-10.333-10.125-1.051 10.688 11.384z"></path>
<path fill="#fdad00" style="fill: var(--color17, #fdad00)" d="M28.653 11.384h7.277l-7.839-10.333 0.563 10.333zM0 11.384h7.276l0.563-10.333-7.839 10.333z"></path>
<path fill="#feeeb7" style="fill: var(--color19, #feeeb7)" d="M17.965 0l-10.688 11.384h21.377l-10.689-11.384z"></path>
</symbol>
<symbol id="icon-logos_visual-studio-code" viewBox="0 0 33 32">
<path fill="#0065a9" style="fill: var(--color20, #0065a9)" opacity="0.78" d="M31.744 3.378l-6.776-3.18c-0.26-0.125-0.566-0.198-0.888-0.198-0.121 0-0.24 0.010-0.356 0.030l0.012-0.002c-0.434 0.073-0.812 0.271-1.106 0.557l0-0-22.183 19.708c-0.275 0.242-0.447 0.594-0.447 0.987s0.173 0.746 0.447 0.987l0.002 0.001 1.812 1.605c0.229 0.203 0.529 0.332 0.858 0.346l0.003 0c0.32 0.014 0.634-0.081 0.889-0.27l26.714-19.747c0.896-0.662 2.184-0.040 2.184 1.056v-0.077c0-0.377-0.11-0.747-0.315-1.066-0.209-0.32-0.497-0.572-0.837-0.734l-0.012-0.005z"></path>
<path fill="#007acc" style="fill: var(--color21, #007acc)" opacity="0.78" d="M31.744 28.503l-6.776 3.179c-0.26 0.125-0.566 0.198-0.889 0.198-0.121 0-0.24-0.010-0.356-0.030l0.012 0.002c-0.434-0.073-0.812-0.271-1.106-0.557l0 0-22.183-19.708c-0.275-0.242-0.447-0.594-0.447-0.987s0.173-0.746 0.447-0.987l0.002-0.001 1.812-1.605c0.229-0.203 0.529-0.332 0.858-0.346l0.003-0c0.32-0.014 0.634 0.081 0.889 0.27l26.713 19.747c0.896 0.662 2.184 0.040 2.184-1.056v0.077c-0 0.396-0.118 0.765-0.32 1.073l0.005-0.008c-0.209 0.32-0.497 0.572-0.837 0.734l-0.012 0.005z"></path>
<path fill="#1f9cf0" style="fill: var(--color22, #1f9cf0)" opacity="0.78" d="M24.946 31.685c-0.26 0.125-0.566 0.198-0.889 0.198-0.121 0-0.24-0.010-0.356-0.030l0.012 0.002c-0.434-0.073-0.812-0.272-1.106-0.557l0 0c0.758 0.739 2.055 0.215 2.055-0.83v-29.050c0-1.045-1.297-1.569-2.055-0.829 0.293-0.285 0.671-0.484 1.093-0.555l0.012-0.002c0.103-0.018 0.222-0.028 0.344-0.028 0.323 0 0.628 0.073 0.901 0.203l-0.013-0.005 6.775 3.175c0.352 0.167 0.64 0.419 0.845 0.731l0.005 0.008c0.197 0.301 0.315 0.67 0.315 1.066v21.526c0 0.77-0.452 1.471-1.164 1.805l-6.775 3.175z"></path>
<path fill="#000" style="fill: var(--color11, #000)" opacity="0.195" d="M23.321 31.744c0.221 0.086 0.476 0.136 0.744 0.136 0.322 0 0.628-0.073 0.901-0.203l-0.013 0.005 6.771-3.175c0.352-0.167 0.64-0.419 0.844-0.731l0.005-0.008c0.206-0.32 0.315-0.689 0.315-1.066v-21.526c0-0.377-0.109-0.747-0.315-1.066-0.209-0.32-0.497-0.572-0.836-0.734l-0.012-0.005-6.771-3.175c-0.26-0.125-0.566-0.198-0.888-0.198-0.122 0-0.241 0.010-0.356 0.030l0.012-0.002c-0.434 0.073-0.812 0.272-1.105 0.557l0-0-12.963 11.523-5.646-4.176c-0.228-0.17-0.516-0.272-0.827-0.272-0.022 0-0.044 0-0.065 0.002l0.003-0c-0.332 0.014-0.631 0.143-0.861 0.347l0.001-0.001-1.811 1.605c-0.275 0.242-0.448 0.595-0.448 0.988s0.172 0.745 0.445 0.986l0.001 0.001 4.896 4.353-4.896 4.352c-0.275 0.242-0.447 0.594-0.447 0.987s0.173 0.746 0.447 0.987l0.001 0.001 1.811 1.605c0.229 0.203 0.529 0.331 0.858 0.345l0.003 0c0.019 0.001 0.040 0.001 0.062 0.001 0.311 0 0.598-0.102 0.83-0.274l-0.004 0.003 5.646-4.176 12.962 11.523c0.2 0.196 0.44 0.348 0.704 0.448zM24.67 8.665l-9.835 7.275 9.835 7.274v-14.549z"></path>
</symbol>
<symbol id="icon-microsoft" viewBox="0 0 147 32">
<path fill="#fff" style="fill: var(--color1, #fff)" opacity="0.2" d="M147.012 14.382v-2.619h-3.211v-4.071l-0.108 0.034-3.075 0.952v3.085h-4.76v-1.718c0-0.8 0.177-1.413 0.525-1.821 0.345-0.404 0.84-0.61 1.47-0.61 0.453 0 0.923 0.109 1.395 0.322l0.119 0.053v-2.758l-0.056-0.021c-0.441-0.16-1.041-0.242-1.784-0.242-0.936 0-1.787 0.206-2.53 0.616-0.737 0.408-1.329 1.001-1.724 1.716l-0.011 0.022c-0.408 0.742-0.614 1.6-0.614 2.549v1.89h-2.236v2.619h2.236v11.032h3.209v-11.032h4.76v7.010c0 2.888 1.345 4.351 3.996 4.351 0.436 0 0.894-0.052 1.363-0.153 0.477-0.104 0.801-0.208 0.992-0.318l0.043-0.025v-2.644l-0.131 0.088c-0.174 0.118-0.391 0.213-0.645 0.285-0.255 0.073-0.469 0.11-0.634 0.11-0.621 0-1.080-0.17-1.366-0.504-0.289-0.338-0.434-0.928-0.434-1.754v-6.446h3.211zM123.246 23.086c-1.164 0-2.083-0.392-2.73-1.163-0.651-0.775-0.981-1.879-0.981-3.282 0-1.447 0.33-2.58 0.981-3.368 0.648-0.784 1.557-1.181 2.704-1.181 1.113 0 1.999 0.379 2.633 1.128 0.638 0.754 0.962 1.877 0.962 3.342 0 1.482-0.305 2.621-0.904 3.383-0.597 0.756-1.493 1.141-2.664 1.141zM123.389 11.434c-2.222 0-3.988 0.66-5.246 1.96s-1.896 3.101-1.896 5.352c0 2.138 0.622 3.857 1.851 5.109s2.898 1.888 4.965 1.888c2.155 0 3.885-0.669 5.143-1.989 1.258-1.317 1.895-3.101 1.895-5.298 0-2.171-0.598-3.902-1.778-5.147-1.181-1.245-2.841-1.876-4.935-1.876zM111.073 11.434c-1.512 0-2.762 0.392-3.717 1.163-0.961 0.777-1.448 1.796-1.448 3.029 0 0.641 0.105 1.211 0.312 1.694 0.224 0.506 0.55 0.931 0.953 1.264l0.006 0.005c0.425 0.355 1.081 0.727 1.95 1.106 0.731 0.305 1.276 0.562 1.622 0.766 0.339 0.198 0.579 0.398 0.715 0.594 0.132 0.19 0.199 0.451 0.199 0.773 0 0.917-0.678 1.363-2.073 1.363-0.517 0-1.108-0.109-1.755-0.325-0.686-0.231-1.281-0.544-1.815-0.935l0.018 0.013-0.133-0.097v3.13l0.049 0.023c0.454 0.213 1.027 0.392 1.701 0.533s1.285 0.213 1.817 0.213c1.64 0 2.962-0.394 3.925-1.171 0.97-0.782 1.462-1.825 1.462-3.101 0-0.92-0.265-1.709-0.786-2.346-0.518-0.631-1.417-1.211-2.672-1.723-0.999-0.406-1.639-0.744-1.903-1.003-0.254-0.25-0.384-0.603-0.384-1.051 0-0.396 0.16-0.715 0.488-0.972 0.33-0.259 0.789-0.391 1.365-0.391 0.535 0 1.082 0.085 1.626 0.253s1.022 0.392 1.42 0.667l0.131 0.091v-2.969l-0.050-0.022c-0.368-0.16-0.853-0.296-1.442-0.407-0.472-0.098-1.017-0.158-1.575-0.165l-0.006-0zM97.541 23.085c-1.165 0-2.083-0.391-2.731-1.162-0.651-0.775-0.981-1.879-0.981-3.282 0-1.447 0.33-2.58 0.981-3.368 0.647-0.784 1.557-1.181 2.704-1.181 1.112 0 1.998 0.379 2.633 1.128 0.637 0.754 0.961 1.877 0.961 3.342 0 1.482-0.304 2.621-0.904 3.383-0.596 0.756-1.492 1.141-2.664 1.141zM97.684 11.434c-2.223 0-3.989 0.66-5.246 1.96s-1.896 3.101-1.896 5.352c0 2.139 0.623 3.857 1.851 5.109s2.899 1.888 4.966 1.888c2.154 0 3.884-0.669 5.142-1.989 1.258-1.317 1.896-3.101 1.896-5.298 0-2.171-0.598-3.902-1.778-5.147s-2.841-1.876-4.934-1.876zM85.67 14.126v-2.364h-3.17v13.652h3.17v-6.984c0-1.187 0.266-2.162 0.79-2.9 0.518-0.728 1.208-1.096 2.050-1.096 0.286 0 0.606 0.047 0.953 0.142 0.344 0.094 0.593 0.196 0.74 0.303l0.133 0.098v-3.238l-0.051-0.021c-0.296-0.127-0.713-0.191-1.242-0.191-0.796 0-1.509 0.259-2.12 0.77-0.536 0.449-0.923 1.064-1.22 1.831h-0.034zM76.823 11.434c-1.455 0-2.752 0.316-3.855 0.939-1.095 0.619-1.965 1.524-2.526 2.613l-0.016 0.035c-0.579 1.131-0.873 2.45-0.873 3.923 0 1.29 0.285 2.473 0.848 3.516 0.564 1.045 1.362 1.863 2.373 2.43 1.009 0.566 2.174 0.853 3.466 0.853 1.506 0 2.793-0.305 3.824-0.907l0.042-0.024v-2.942l-0.133 0.099c-0.446 0.331-0.959 0.607-1.51 0.805l-0.041 0.013c-0.56 0.198-1.071 0.298-1.519 0.298-1.243 0-2.242-0.395-2.967-1.171-0.727-0.779-1.095-1.871-1.095-3.247 0-1.384 0.384-2.504 1.141-3.332 0.754-0.824 1.755-1.243 2.973-1.243 1.042 0 2.057 0.357 3.018 1.064l0.133 0.098v-3.099l-0.043-0.025c-0.361-0.205-0.854-0.373-1.467-0.503-0.531-0.119-1.143-0.189-1.77-0.192h-0.001zM67.368 11.762h-3.17v13.652h3.17v-13.651zM65.816 5.947c-0.009-0-0.019-0-0.029-0-0.514 0-0.981 0.205-1.323 0.537l0-0c-0.349 0.326-0.566 0.789-0.566 1.303 0 0.013 0 0.026 0 0.038l-0-0.002c0 0.523 0.188 0.965 0.56 1.312 0.37 0.347 0.826 0.523 1.356 0.523s0.989-0.176 1.364-0.523c0.349-0.317 0.567-0.772 0.567-1.278 0-0.012-0-0.024-0-0.037l0 0.002c0-0.514-0.186-0.959-0.552-1.326-0.366-0.365-0.83-0.55-1.379-0.55zM57.905 10.755v14.659h3.235v-19.048h-4.477l-5.691 14.149-5.524-14.149h-4.661v19.048h3.040v-14.659h0.105l5.832 14.659h2.295l5.741-14.658h0.104zM14.914 15.106h-14.914v-15.106h14.914v15.106zM31.38 15.106h-14.914v-15.106h14.914v15.106zM14.913 31.79h-14.913v-15.105h14.913v15.106zM31.38 31.79h-14.914v-15.105h14.914v15.106z"></path>
</symbol>
<symbol id="icon-notion" viewBox="0 0 32 32">
<path fill="#fff" style="fill: var(--color1, #fff)" opacity="0.78" d="M5.716 29.218l-3.439-4.285c-0.793-0.976-1.274-2.233-1.276-3.602v-15.516c0-1.954 1.563-3.576 3.581-3.714l15.951-1.089c0.108-0.008 0.234-0.013 0.361-0.013 1.083 0 2.088 0.331 2.92 0.897l-0.018-0.012 5.604 3.789c1.003 0.678 1.601 1.787 1.601 2.97v17.639c0 1.913-1.538 3.497-3.512 3.618l-17.704 1.090c-1.576 0.096-3.099-0.567-4.067-1.773z"></path>
<path fill="#000" style="fill: var(--color11, #000)" opacity="0.78" d="M11.248 13.579v-0.203c0-0.515 0.412-0.942 0.944-0.978l3.872-0.258 5.354 7.884v-6.919l-1.378-0.184v-0.097c0-0.521 0.422-0.951 0.96-0.979l3.523-0.18v0.506c-0.003 0.244-0.183 0.445-0.417 0.482l-0.003 0-0.848 0.143v11.205l-1.064 0.366c-0.889 0.305-1.878-0.021-2.387-0.789l-5.197-7.843v7.486l1.6 0.306-0.023 0.148c-0.070 0.465-0.471 0.817-0.957 0.838l-3.979 0.177c-0.053-0.5 0.322-0.947 0.839-1.001l0.524-0.055v-9.982l-1.363-0.076z"></path>
<path fill="#000" style="fill: var(--color11, #000)" opacity="0.78" d="M20.675 2.967l-15.951 1.089c-0.955 0.065-1.696 0.833-1.696 1.759v15.515c0 0.87 0.3 1.715 0.851 2.402l3.439 4.285c0.556 0.692 1.431 1.074 2.337 1.018l17.704-1.090c0.907-0.055 1.614-0.783 1.614-1.662v-17.639c-0.003-0.567-0.292-1.066-0.73-1.361l-0.006-0.004-5.604-3.789c-0.489-0.333-1.092-0.531-1.741-0.531-0.076 0-0.152 0.003-0.227 0.008l0.010-0.001zM5.515 6.057c-0.223-0.165-0.117-0.506 0.162-0.527l15.105-1.083c0.045-0.004 0.098-0.006 0.152-0.006 0.449 0 0.864 0.142 1.204 0.384l-0.006-0.004 3.031 2.147c0.115 0.082 0.061 0.258-0.081 0.265l-15.996 0.87c-0.035 0.002-0.076 0.003-0.117 0.003-0.463 0-0.891-0.152-1.236-0.408l0.006 0.004-2.223-1.646zM8.334 10.831c0-0.52 0.42-0.949 0.957-0.978l16.913-0.921c0.523-0.028 0.964 0.374 0.964 0.88v15.273c0 0.519-0.419 0.948-0.954 0.979l-16.805 0.956c-0.582 0.033-1.073-0.415-1.073-0.978v-15.211z"></path>
</symbol>
<symbol id="icon-phpstorm" viewBox="0 0 32 32">
<path fill="#000" style="fill: var(--color11, #000)" d="M18.103 6.949l-1.509-4.572-11.155-2.377-5.44 6.171 17.006 8.685 1.098-7.909z"></path>
<path fill="#000" style="fill: var(--color11, #000)" d="M12.8 18.925l-0.32-9.508-12.48-3.245 3.063 18.331 9.737-0.091v-5.486z"></path>
<path fill="#000" style="fill: var(--color11, #000)" d="M10.103 18.743l0.594-7.543 9.052-9.28 8.091 1.463 4.16 10.377-4.343 4.297-7.085-1.142-4.389 4.617-6.080-2.788z"></path>
<path fill="#000" style="fill: var(--color11, #000)" d="M19.748 1.92l-12.982 11.52 2.514 14.812 10.789 3.748 11.931-7.131-12.252-22.948z"></path>
<path fill="#000" style="fill: var(--color11, #000)" d="M6.125 6.125h19.75v19.75h-19.75v-19.75z"></path>
<path fill="#fff" style="fill: var(--color1, #fff)" d="M8 22.172h7.405v1.234h-7.405v-1.234zM7.909 8.685h3.337c1.966 0 3.155 1.143 3.155 2.835v0.046c0 1.92-1.463 2.88-3.337 2.88h-1.371v2.469h-1.783v-8.229zM11.154 12.8c0.915 0 1.418-0.549 1.418-1.235v-0.046c0-0.823-0.549-1.235-1.463-1.235h-1.371v2.514h1.417zM14.857 15.726l1.052-1.28c0.732 0.595 1.509 1.006 2.468 1.006 0.732 0 1.189-0.274 1.189-0.777v-0.046c0-0.457-0.274-0.685-1.645-1.052-1.646-0.412-2.743-0.869-2.743-2.514v-0.046c0-1.508 1.188-2.469 2.88-2.469 1.189 0 2.24 0.366 3.063 1.052l-0.96 1.371c-0.732-0.503-1.463-0.823-2.148-0.823s-1.052 0.32-1.052 0.732v0.046c0 0.549 0.366 0.732 1.783 1.098 1.645 0.457 2.605 1.051 2.605 2.469v0.046c0 1.646-1.235 2.56-3.017 2.56-1.337-0.052-2.545-0.563-3.481-1.377l0.007 0.006z"></path>
</symbol>
<symbol id="icon-procreate" viewBox="0 0 32 32">
<path fill="#1e252b" style="fill: var(--color23, #1e252b)" opacity="0.78" d="M2 12.133c0-3.547 0-5.321 0.69-6.675 0.619-1.197 1.571-2.149 2.733-2.751l0.035-0.017c1.355-0.691 3.128-0.691 6.675-0.691h7.733c3.547 0 5.32 0 6.675 0.69 1.197 0.619 2.149 1.571 2.751 2.733l0.017 0.035c0.691 1.355 0.691 3.128 0.691 6.675v7.733c0 3.547 0 5.32-0.69 6.675-0.619 1.197-1.571 2.149-2.733 2.751l-0.035 0.017c-1.355 0.691-3.128 0.691-6.675 0.691h-7.734c-3.547 0-5.321 0-6.675-0.69-1.197-0.619-2.149-1.571-2.751-2.733l-0.017-0.035c-0.69-1.355-0.69-3.128-0.69-6.675v-7.734z"></path>
<path fill="#000" style="fill: var(--color11, #000)" opacity="0.78" d="M9.867 16.4c-3.9 2.87-4.667 7.066-4.667 10.566 0.178-1.044 0.994-3.493 2.833-4.933 2.733-2.139 7.733-1.435 13.2-5.067s6-8.367 5.3-12c-0.486 3.506-2.146 5.034-4.433 6.4-4.966 2.967-8.066 1.967-12.233 5.034z"></path>
<path fill="#000" style="fill: var(--color11, #000)" opacity="0.78" d="M9.867 16.4c-3.9 2.87-4.667 7.066-4.667 10.566 0.178-1.044 0.994-3.493 2.833-4.933 2.733-2.139 7.733-1.435 13.2-5.067s6-8.367 5.3-12c-0.486 3.506-2.146 5.034-4.433 6.4-4.966 2.967-8.066 1.967-12.233 5.034z"></path>
<path fill="#000" style="fill: var(--color11, #000)" opacity="0.78" d="M5.247 25.532c0.214-3.163 1.241-6.645 4.62-9.132 2.172-1.598 4.055-2.092 6.063-2.619 1.172-0.307 2.386-0.626 3.726-1.181-0.489 0.466-2.812 1.556-4.564 2.285-1.748 0.726-3.591 1.492-5.125 2.515-3.078 2.052-4.33 5.622-4.72 8.132z"></path>
<path fill="#000" style="fill: var(--color11, #000)" opacity="0.78" d="M5.247 25.532c0.214-3.163 1.241-6.645 4.62-9.132 2.172-1.598 4.055-2.092 6.063-2.619 1.172-0.307 2.386-0.626 3.726-1.181-0.489 0.466-2.812 1.556-4.564 2.285-1.748 0.726-3.591 1.492-5.125 2.515-3.078 2.052-4.33 5.622-4.72 8.132z"></path>
<path fill="#000" style="fill: var(--color11, #000)" opacity="0.78" d="M24.218 14.371c-0.377 0.371-0.798 0.7-1.254 0.978l-0.030 0.017c-2.134 1.28-4.401 1.693-6.607 2.095-1.758 0.32-3.477 0.633-5.059 1.372-3.566 1.666-5.766 5.133-6.066 8.133v-0.001c0-0.229 0.003-0.461 0.011-0.695 0.019-0.372 0.056-0.784 0.12-1.223 0.471-2.468 1.752-5.724 4.636-7.646 1.222-0.814 2.638-1.465 4.046-2.063 1.239-0.406 2.355-0.66 3.419-0.901 1.674-0.38 3.218-0.729 4.902-1.602 3.534-1.832 4.46-5.595 4.211-7.809 0.529 2.805 0.315 6.255-2.327 9.346z"></path>
<path fill="#000" style="fill: var(--color11, #000)" opacity="0.78" d="M24.218 14.371c-0.377 0.371-0.798 0.7-1.254 0.978l-0.030 0.017c-2.134 1.28-4.401 1.693-6.607 2.095-1.758 0.32-3.477 0.633-5.059 1.372-2.051 0.959-3.65 2.512-4.696 4.23 0.923-1.296 2.328-2.745 4.063-3.297 1.692-0.538 3.306-0.594 4.983-0.651 0.481-0.017 0.966-0.034 1.461-0.062 1.332-0.485 2.728-1.137 4.156-2.087 1.23-0.817 2.211-1.691 2.984-2.595z"></path>
<path fill="#000" style="fill: var(--color11, #000)" opacity="0.78" d="M24.218 14.371c-0.377 0.371-0.798 0.7-1.254 0.978l-0.030 0.017c-2.134 1.28-4.401 1.693-6.607 2.095-1.758 0.32-3.477 0.633-5.059 1.372-2.051 0.959-3.65 2.512-4.696 4.23 0.923-1.296 2.328-2.745 4.063-3.297 1.692-0.538 3.306-0.594 4.983-0.651 0.481-0.017 0.966-0.034 1.461-0.062 1.332-0.485 2.728-1.137 4.156-2.087 1.23-0.817 2.211-1.691 2.984-2.595z"></path>
<path fill="#000" style="fill: var(--color11, #000)" opacity="0.78" d="M26.544 5.025l-0.011-0.059c-0.486 3.506-2.146 5.034-4.433 6.4-0.684 0.42-1.488 0.833-2.322 1.187l-0.123 0.046c-0.489 0.467-2.812 1.556-4.564 2.285h-0.001c-0.357 0.149-0.717 0.298-1.079 0.451 1.239-0.406 2.355-0.66 3.419-0.901 1.675-0.38 3.218-0.729 4.902-1.602 3.534-1.832 4.46-5.595 4.211-7.809z"></path>
<path fill="#000" style="fill: var(--color11, #000)" opacity="0.78" d="M26.544 5.025l-0.011-0.059c-0.486 3.506-2.146 5.034-4.433 6.4-0.684 0.42-1.488 0.833-2.322 1.187l-0.123 0.046c-0.489 0.467-2.812 1.556-4.564 2.285h-0.001c-0.357 0.149-0.717 0.298-1.079 0.451 1.239-0.406 2.355-0.66 3.419-0.901 1.675-0.38 3.218-0.729 4.902-1.602 3.534-1.832 4.46-5.595 4.211-7.809z"></path>
</symbol>
<symbol id="icon-slack" viewBox="0 0 127 32">
<path d="M40.481 25.079l1.58-3.652c1.708 1.268 3.977 1.928 6.22 1.928 1.657 0 2.702-0.634 2.702-1.598-0.025-2.688-9.916-0.583-9.992-7.329-0.025-3.423 3.033-6.060 7.367-6.060 2.575 0 5.15 0.633 6.985 2.079l-1.479 3.728c-1.682-1.065-3.773-1.826-5.761-1.826-1.351 0-2.243 0.633-2.243 1.445 0.025 2.638 9.992 1.192 10.094 7.633 0 3.5-2.983 5.96-7.265 5.96-3.135 0-6.016-0.736-8.208-2.308zM101.126 20.109l4.359 2.409c-1.66 2.927-4.754 4.869-8.302 4.869-0.012 0-0.024-0-0.036-0h0.002c-5.277 0-9.559-4.261-9.559-9.51s4.283-9.509 9.559-9.509c3.569 0 6.704 1.977 8.336 4.869l-4.359 2.409c-0.79-1.369-2.269-2.307-3.977-2.307-2.523 0-4.563 2.028-4.563 4.539s2.040 4.539 4.563 4.539c1.708 0 3.187-0.938 3.977-2.307h0.001zM58.147 0.482h5.455v26.55h-5.455v-26.55zM107.626 0.482h5.456v15.595l6.169-7.329h6.679l-7.622 8.825 8.234 9.459h-6.984l-6.475-7.963v7.963h-5.456v-26.55zM79.815 20.16v-4.489c-0.79-1.319-2.422-2.333-4.257-2.333-2.524 0-4.563 2.028-4.563 4.539s2.039 4.539 4.563 4.539c1.835 0 3.466-0.963 4.257-2.256zM79.815 8.749h5.456v18.258h-5.456v-2.155c-0.892 1.495-3.11 2.536-5.43 2.536-4.793 0-8.566-4.261-8.566-9.535s3.773-9.484 8.566-9.484c2.32 0 4.537 1.040 5.43 2.536v-2.156zM6.755 20.134c0 1.851-1.504 3.348-3.365 3.348-0 0-0.001 0-0.001 0-0.928 0-1.768-0.374-2.379-0.98l0 0c-0.608-0.605-0.985-1.443-0.985-2.369v-0c0-1.851 1.504-3.348 3.365-3.348h3.365v3.348zM8.438 20.134c0-1.851 1.504-3.347 3.365-3.347s3.365 1.496 3.365 3.348v8.368c0 1.851-1.504 3.347-3.365 3.347-0.001 0-0.002 0-0.002 0-0.928 0-1.768-0.374-2.378-0.98l0 0c-0.608-0.605-0.984-1.442-0.984-2.367v-8.369zM11.803 6.695c-0.001 0-0.001 0-0.002 0-0.928 0-1.768-0.374-2.379-0.98l0 0c-0.608-0.605-0.984-1.443-0.984-2.368v-0c-0.001-1.851 1.503-3.347 3.365-3.347s3.365 1.496 3.365 3.347v3.348h-3.365zM11.803 8.394c1.861 0 3.365 1.495 3.365 3.347s-1.504 3.348-3.365 3.348h-8.438c-0.001 0-0.001 0-0.002 0-0.928 0-1.768-0.374-2.379-0.98l0 0c-0.608-0.605-0.984-1.443-0.985-2.368v-0c0-1.851 1.504-3.347 3.365-3.347h8.438zM25.288 11.741c0-1.851 1.504-3.347 3.365-3.347s3.365 1.495 3.365 3.347-1.504 3.348-3.365 3.348h-3.365v-3.348zM23.605 11.741c0 1.851-1.503 3.348-3.365 3.348-0.001 0-0.001 0-0.002 0-0.928 0-1.768-0.374-2.379-0.98l0 0c-0.608-0.605-0.984-1.443-0.984-2.368v-8.394c-0.001-1.851 1.504-3.347 3.365-3.347s3.365 1.496 3.365 3.347v8.395zM20.24 25.156c1.861 0 3.365 1.495 3.365 3.347s-1.504 3.347-3.365 3.347c-0.001 0-0.002 0-0.002 0-0.928 0-1.768-0.374-2.378-0.98l0 0c-0.608-0.605-0.984-1.442-0.984-2.367v-3.348h3.365zM20.24 23.481c-0 0-0.001 0-0.002 0-0.928 0-1.769-0.374-2.379-0.98l0 0c-0.608-0.605-0.984-1.442-0.984-2.367v-0c0-1.851 1.504-3.348 3.365-3.348h8.438c1.861 0 3.365 1.496 3.365 3.348s-1.504 3.348-3.365 3.348h-8.438z"></path>
</symbol>
<symbol id="icon-toolbox_app" viewBox="0 0 32 32">
<path fill="#000001" style="fill: var(--color24, #000001)" opacity="0.78" d="M16 32.076l14-8.011v-16.008l-14 8.010v16.009z"></path>
<path fill="#fff" style="fill: var(--color1, #fff)" opacity="0.78" d="M19 24.555v2.445l6-3.555v-2.445l-6 3.555z"></path>
<path fill="#000" style="fill: var(--color11, #000)" opacity="0.78" d="M16 0.076l-14 7.981v16.008l14 8.011v-16.009l14-8.010-14-7.981z"></path>
</symbol>
<symbol id="icon-twitter" viewBox="0 0 32 32">
<path fill="#fff" style="fill: var(--color1, #fff)" opacity="0.78" d="M26.178 10.663c0.017 0.233 0.017 0.465 0.017 0.697 0 7.1-5.404 15.282-15.28 15.282-3.043 0-5.869-0.882-8.248-2.412 0.432 0.050 0.848 0.067 1.298 0.067 2.417 0.006 4.765-0.803 6.668-2.294-2.34-0.044-4.312-1.575-5.011-3.686l-0.011-0.038c0.332 0.050 0.665 0.083 1.014 0.083 0.482 0 0.965-0.067 1.414-0.182-2.473-0.513-4.305-2.674-4.305-5.262 0-0.003 0-0.006 0-0.009v0-0.067c0.716 0.399 1.547 0.649 2.427 0.682-1.452-0.975-2.396-2.611-2.396-4.468 0-0.002 0-0.003 0-0.005v0c0-0.997 0.266-1.912 0.731-2.709 2.662 3.256 6.599 5.385 11.038 5.618l0.038 0.002c-0.082-0.369-0.13-0.793-0.133-1.228v-0.002c0-0.001 0-0.002 0-0.003 0-2.965 2.403-5.368 5.368-5.368 0.001 0 0.001 0 0.002 0h-0c1.547 0 2.943 0.648 3.924 1.696 1.285-0.254 2.427-0.704 3.456-1.324l-0.048 0.027c-0.416 1.263-1.251 2.292-2.338 2.947l-0.024 0.013c1.146-0.134 2.191-0.427 3.16-0.859l-0.068 0.027c-0.749 1.082-1.64 2.001-2.661 2.756l-0.031 0.022z"></path>
</symbol>
<symbol id="icon-wordpress" viewBox="0 0 141 32">
<path fill="#fff" style="fill: var(--color1, #fff)" opacity="0.2" d="M81.83 12.506h-5.554v0.585c1.737 0 2.017 0.369 2.017 2.556v3.942c0 2.187-0.279 2.587-2.017 2.587-1.334-0.185-2.233-0.893-3.475-2.248l-1.427-1.54c1.923-0.339 2.947-1.54 2.947-2.895 0-1.695-1.457-2.987-4.188-2.987h-5.46v0.584c1.737 0 2.016 0.369 2.016 2.556v3.942c0 2.187-0.279 2.587-2.016 2.587v0.585h6.174v-0.585c-1.737 0-2.016-0.4-2.016-2.587v-1.108h0.527l3.444 4.28h9.029c4.437 0 6.361-2.34 6.361-5.143s-1.924-5.112-6.361-5.112zM68.83 17.526v-4.095h1.272c1.396 0 2.017 0.954 2.017 2.063 0 1.078-0.621 2.032-2.017 2.032h-1.273zM81.923 21.807h-0.217c-1.116 0-1.271-0.277-1.271-1.694v-6.683h1.489c3.227 0 3.816 2.34 3.816 4.158 0 1.879-0.589 4.219-3.816 4.219zM47.391 18.665l2.14-6.283c0.621-1.817 0.342-2.34-1.644-2.34v-0.616h5.833v0.616c-1.955 0-2.42 0.462-3.196 2.71l-3.537 10.532h-0.403l-3.166-9.639-3.228 9.639h-0.403l-3.444-10.532c-0.745-2.248-1.241-2.71-3.041-2.71v-0.616h6.887v0.616c-1.83 0-2.327 0.431-1.675 2.34l2.079 6.283 3.135-9.239h0.589l3.072 9.239zM57.939 23.161c-3.413 0-6.205-2.495-6.205-5.544 0-3.017 2.793-5.513 6.205-5.513s6.205 2.495 6.205 5.513c0 3.049-2.792 5.544-6.205 5.544zM57.939 13.060c-2.854 0-3.847 2.556-3.847 4.558 0 2.033 0.993 4.558 3.847 4.558 2.886 0 3.879-2.525 3.879-4.558 0-2.002-0.993-4.558-3.879-4.558zM95.854 22.145v0.615h-7.105v-0.615c2.079 0 2.452-0.524 2.452-3.604v-4.927c0-3.081-0.372-3.572-2.452-3.572v-0.617h6.423c3.196 0 4.964 1.633 4.964 3.819 0 2.125-1.769 3.788-4.964 3.788h-1.769v1.508c0 3.081 0.372 3.604 2.452 3.604zM95.171 10.535h-1.769v5.359h1.769c1.737 0 2.545-1.201 2.545-2.649 0-1.478-0.807-2.711-2.545-2.711zM121.451 19.866l-0.155 0.554c-0.279 1.017-0.621 1.386-2.824 1.386h-0.435c-1.612 0-1.892-0.37-1.892-2.556v-1.417c2.42 0 2.607 0.215 2.607 1.817h0.59v-4.589h-0.59c0 1.601-0.186 1.817-2.607 1.817v-3.449h1.706c2.204 0 2.545 0.369 2.824 1.386l0.156 0.585h0.496l-0.217-2.895h-9.123v0.585c1.737 0 2.017 0.369 2.017 2.556v3.942c0 2-0.238 2.504-1.607 2.576-1.302-0.198-2.196-0.903-3.419-2.238l-1.428-1.539c1.924-0.34 2.948-1.54 2.948-2.895 0-1.694-1.459-2.987-4.189-2.987h-5.46v0.585c1.737 0 2.017 0.369 2.017 2.556v3.942c0 2.186-0.279 2.587-2.017 2.587v0.585h6.175v-0.585c-1.737 0-2.017-0.4-2.017-2.586v-1.109h0.527l3.444 4.28h12.752l0.187-2.895h-0.466zM105.007 17.526v-4.095h1.272c1.396 0 2.017 0.954 2.017 2.063 0 1.078-0.621 2.032-2.017 2.032h-1.272zM127.749 23.161c-1.241 0-2.327-0.647-2.793-1.047-0.155 0.154-0.434 0.616-0.496 1.047h-0.59v-4.249h0.621c0.248 2.032 1.675 3.233 3.506 3.233 0.993 0 1.799-0.553 1.799-1.478 0-0.8-0.713-1.417-1.985-2.001l-1.769-0.831c-1.241-0.585-2.172-1.602-2.172-2.956 0-1.479 1.396-2.741 3.32-2.741 1.025 0 1.892 0.37 2.42 0.801 0.155-0.124 0.311-0.462 0.404-0.832h0.59v3.635h-0.652c-0.218-1.447-1.024-2.649-2.668-2.649-0.869 0-1.676 0.493-1.676 1.263 0 0.8 0.652 1.231 2.142 1.909l1.705 0.831c1.49 0.708 2.079 1.847 2.079 2.771 0 1.94-1.707 3.295-3.785 3.295zM137.305 23.161c-1.241 0-2.327-0.647-2.793-1.047-0.155 0.154-0.434 0.616-0.496 1.047h-0.589v-4.249h0.62c0.248 2.032 1.676 3.233 3.506 3.233 0.993 0 1.8-0.553 1.8-1.478 0-0.8-0.713-1.417-1.986-2.001l-1.769-0.831c-1.241-0.585-2.172-1.602-2.172-2.956 0-1.479 1.396-2.741 3.32-2.741 1.024 0 1.892 0.37 2.42 0.801 0.155-0.124 0.31-0.462 0.403-0.832h0.59v3.635h-0.652c-0.217-1.447-1.024-2.649-2.668-2.649-0.868 0-1.676 0.493-1.676 1.263 0 0.8 0.652 1.231 2.141 1.909l1.706 0.831c1.489 0.708 2.079 1.847 2.079 2.771 0 1.94-1.706 3.295-3.785 3.295zM2.275 15.886c0 5.395 3.159 10.056 7.74 12.265l-6.551-17.812c-0.751 1.627-1.189 3.532-1.189 5.538 0 0.003 0 0.006 0 0.009v-0zM25.276 15.199c0-1.684-0.609-2.851-1.133-3.759-0.696-1.122-1.348-2.073-1.348-3.195 0-1.253 0.958-2.42 2.305-2.42 0.061 0 0.119 0.007 0.179 0.011-2.431-2.219-5.68-3.577-9.246-3.577-0.009 0-0.019 0-0.028 0h0.001c-0.007 0-0.015-0-0.023-0-4.758 0-8.952 2.419-11.418 6.094l-0.031 0.049c0.322 0.009 0.625 0.016 0.884 0.016 1.436 0 3.66-0.173 3.66-0.173 0.74-0.044 0.827 1.036 0.088 1.123 0 0-0.744 0.087-1.572 0.129l5 14.762 3.005-8.945-2.14-5.817c-0.739-0.044-1.44-0.131-1.44-0.131-0.74-0.042-0.652-1.165 0.087-1.122 0 0 2.268 0.173 3.617 0.173 1.436 0 3.66-0.173 3.66-0.173 0.74-0.044 0.828 1.036 0.088 1.123 0 0-0.745 0.087-1.571 0.129l4.961 14.651 1.369-4.543c0.593-1.884 1.046-3.239 1.046-4.405zM16.247 17.079l-4.12 11.881c1.162 0.353 2.498 0.556 3.881 0.556 1.633 0 3.201-0.283 4.655-0.803l-0.097 0.030c-0.035-0.054-0.068-0.115-0.095-0.18l-0.003-0.008-4.221-11.476zM28.055 9.348c0.058 0.434 0.092 0.9 0.092 1.401 0 1.383-0.26 2.937-1.044 4.881l-4.194 12.036c4.082-2.364 6.828-6.753 6.828-11.78 0-2.369-0.61-4.598-1.682-6.539zM16.007 0c-8.825 0-16.007 7.127-16.007 15.886 0 8.761 7.181 15.887 16.007 15.887s16.007-7.127 16.007-15.887c0-8.759-7.182-15.886-16.007-15.886zM16.007 31.044c-8.421 0-15.273-6.8-15.273-15.159s6.851-15.158 15.273-15.158c8.42 0 15.272 6.8 15.272 15.158s-6.851 15.159-15.273 15.159z"></path>
</symbol>
<symbol id="icon-zeplin" viewBox="0 0 41 32">
<path fill="#fdbd39" style="fill: var(--color25, #fdbd39)" d="M6.277 22.063l-2.131 0.765-0.113 6.23 7.375-2.648c-2.529-0.836-4.377-2.305-5.13-4.347z"></path>
<path fill="#f69833" style="fill: var(--color26, #f69833)" d="M7.393 15.473l-7.393 2.655 4.147 4.7 2.131-0.765c-0.751-2.036-0.288-4.338 1.115-6.59z"></path>
<path fill="#fecf33" style="fill: var(--color27, #fecf33)" d="M19.833 6.484c-9.414 3.38-15.484 10.356-13.556 15.58l34.090-12.241c-1.927-5.224-11.121-6.719-20.535-3.338z"></path>
<path fill="#ee6723" style="fill: var(--color28, #ee6723)" d="M26.812 25.401c9.414-3.38 15.494-10.324 13.556-15.58l-34.091 12.241c1.939 5.255 11.121 6.719 20.535 3.339z"></path>
<path fill="#f69833" style="fill: var(--color26, #f69833)" d="M40.367 9.822l-34.091 12.241c0.668 1.809 3.213 2.701 6.785 2.701 3.481 0 7.939-0.847 12.586-2.515 9.414-3.38 16.036-8.853 14.719-12.427z"></path>
<path fill="#fdbd39" style="fill: var(--color25, #fdbd39)" d="M33.583 7.121c-3.482 0-7.94 0.847-12.587 2.515-9.414 3.38-16.036 8.853-14.719 12.427l34.090-12.241c-0.668-1.809-3.213-2.7-6.785-2.7z"></path>
<path fill="#ee6723" style="fill: var(--color28, #ee6723)" d="M31.7 29.388c-1.004 0-2.483-0.891-4.399-2.647-2.265-2.078-4.861-5.121-7.309-8.569-2.447-3.448-4.458-6.895-5.662-9.707-1.312-3.064-1.499-4.948-0.556-5.6 0.199-0.135 0.445-0.215 0.709-0.215 0.011 0 0.022 0 0.033 0l-0.002-0c0.767 0 2.262 0.561 5.025 3.236l0.060 0.058-0.008 0.083c-0.019 0.192-0.036 0.385-0.052 0.577l-0.031 0.377-0.271-0.269c-2.978-2.948-4.289-3.266-4.716-3.266-0.008-0-0.017-0.001-0.026-0.001-0.097 0-0.187 0.027-0.263 0.075l0.002-0.001c-0.409 0.282-0.435 1.665 0.836 4.636 1.183 2.761 3.165 6.156 5.58 9.56s4.972 6.402 7.197 8.443c2.4 2.201 3.481 2.438 3.835 2.438 0.008 0 0.017 0.001 0.025 0.001 0.1 0 0.193-0.029 0.272-0.078l-0.002 0.001c0.431-0.298 0.432-1.78-0.987-4.977l-0.065-0.146 0.143-0.077c0.143-0.076 0.28-0.153 0.409-0.225l0.171-0.095 0.079 0.177c1.006 2.265 1.946 5.144 0.713 5.996-0.207 0.144-0.458 0.217-0.744 0.217zM31.7 29.039v0z"></path>
<path fill="#ee6723" style="fill: var(--color28, #ee6723)" d="M27.040 25.306l-0.015 0.175c-0.237 2.895-0.864 6.374-2.498 6.515-0.030 0.003-0.065 0.004-0.1 0.004-0 0-0.001 0-0.001 0h0c-1.11 0-2.16-1.564-3.12-4.646-0.91-2.916-1.615-6.833-1.988-11.027s-0.366-8.171 0.016-11.2c0.416-3.3 1.209-5.024 2.356-5.123 0.033-0.003 0.069-0.004 0.103-0.004 0.806 0 2.019 0.896 3.261 5.071l-0.811 0.153c-0.415-1.395-0.867-2.529-1.316-3.309-0.415-0.721-0.819-1.118-1.137-1.118-0.010 0-0.021 0-0.031 0.001-0.497 0.043-1.221 1.228-1.625 4.428-0.375 2.975-0.38 6.892-0.013 11.032s1.062 7.997 1.955 10.862c0.4 1.283 0.838 2.34 1.268 3.057 0.396 0.662 0.78 1.025 1.080 1.025l0.031-0.001c0.476-0.041 1.372-1.275 1.749-5.615l0.834-0.281z"></path>
</symbol>
<symbol id="icon-search" viewBox="0 0 33 32">
<path fill="none" stroke="#fff" style="stroke: var(--color1, #fff)" stroke-linejoin="round" stroke-linecap="round" stroke-miterlimit="4" stroke-width="2.6667" d="M14.667 25.333c5.891 0 10.667-4.776 10.667-10.667s-4.776-10.667-10.667-10.667c-5.891 0-10.667 4.776-10.667 10.667s4.776 10.667 10.667 10.667z"></path>
<path fill="none" stroke="#fff" style="stroke: var(--color1, #fff)" stroke-linejoin="round" stroke-linecap="round" stroke-miterlimit="4" stroke-width="2.6667" d="M28 28l-5.8-5.8"></path>
</symbol>
</defs>
</svg>
