<svg aria-hidden="true" style="position: absolute; width: 0; height: 0; overflow: hidden;" version="1.1" xmlns="http://www.w3.org/2000/svg" xmlns:xlink="http://www.w3.org/1999/xlink">
<defs>
<symbol id="icon-envelope" viewBox="0 0 32 32">
<path fill="#fff" style="fill: var(--color1, #fff)" opacity="0.38" d="M18.667 17.333h-1.333v-1.333c0-0.354-0.14-0.693-0.39-0.943s-0.589-0.39-0.943-0.39c-0.354 0-0.693 0.14-0.943 0.39s-0.39 0.589-0.39 0.943v1.333h-1.333c-0.354 0-0.693 0.14-0.943 0.39s-0.39 0.589-0.39 0.943c0 0.354 0.14 0.693 0.39 0.943s0.589 0.39 0.943 0.39h1.333v1.333c0 0.354 0.14 0.693 0.39 0.943s0.589 0.39 0.943 0.39c0.354 0 0.693-0.14 0.943-0.39s0.39-0.589 0.39-0.943v-1.333h1.333c0.354 0 0.693-0.14 0.943-0.39s0.39-0.589 0.39-0.943c0-0.354-0.14-0.693-0.39-0.943s-0.589-0.39-0.943-0.39z"></path>
<path fill="#fff" style="fill: var(--color1, #fff)" opacity="0.38" d="M26 9.4h-9.333l-3.507-4.24c-0.124-0.153-0.281-0.277-0.458-0.362s-0.372-0.13-0.569-0.132h-6.133c-0.871-0.011-1.711 0.324-2.336 0.932s-0.983 1.437-0.997 2.308v16.187c0.014 0.871 0.373 1.701 0.997 2.308s1.465 0.942 2.336 0.932h20c0.871 0.011 1.711-0.324 2.336-0.932s0.983-1.437 0.997-2.308v-11.453c-0.014-0.871-0.373-1.701-0.997-2.308s-1.465-0.942-2.336-0.932zM26.667 24.067c-0.005 0.082-0.026 0.162-0.063 0.235s-0.087 0.139-0.149 0.192c-0.062 0.053-0.134 0.094-0.212 0.119s-0.16 0.034-0.242 0.027h-20c-0.082 0.007-0.164-0.002-0.242-0.027s-0.15-0.066-0.212-0.119-0.113-0.119-0.149-0.192c-0.036-0.073-0.058-0.153-0.063-0.235v-16.16c0.005-0.082 0.026-0.162 0.063-0.235s0.087-0.139 0.149-0.192c0.062-0.053 0.134-0.094 0.212-0.119s0.16-0.034 0.242-0.027h5.507l3.467 4.24c0.124 0.153 0.281 0.276 0.458 0.362s0.372 0.13 0.569 0.132h10c0.082-0.007 0.164 0.002 0.242 0.027s0.15 0.066 0.212 0.119 0.113 0.119 0.149 0.192c0.036 0.073 0.058 0.153 0.063 0.235v11.427z"></path>
</symbol>
<symbol id="icon-facebook" viewBox="0 0 32 32">
<path fill="#fff" style="fill: var(--color1, #fff)" opacity="0.78" d="M17.863 27.996v-10.928h3.687l0.548-4.279h-4.235v-2.725c0-1.235 0.344-2.080 2.116-2.080h2.245v-3.815c-1.093-0.117-2.191-0.174-3.289-0.169-3.259 0-5.496 1.989-5.496 5.641v3.14h-3.663v4.279h3.671v10.936h4.416z"></path>
</symbol>
<symbol id="icon-google" viewBox="0 0 99 32">
<path fill="#fff" style="fill: var(--color1, #fff)" opacity="0.2" d="M95.442 19.557l2.733 1.804c-0.887 1.293-3.009 3.512-6.677 3.512-4.554 0-7.946-3.489-7.946-7.926 0-4.723 3.428-7.926 7.563-7.926 4.159 0 6.197 3.275 6.856 5.043l0.36 0.902-10.715 4.39c0.814 1.59 2.086 2.397 3.883 2.397 1.798 0 3.044-0.878 3.944-2.195zM87.040 16.697l7.155-2.943c-0.396-0.985-1.57-1.685-2.973-1.685-1.786 0-4.267 1.566-4.183 4.628z"></path>
<path fill="#fff" style="fill: var(--color1, #fff)" opacity="0.2" d="M78.386 0.939h3.452v23.209h-3.452v-23.209z"></path>
<path fill="#fff" style="fill: var(--color1, #fff)" opacity="0.2" d="M72.944 9.637h3.332v14.097c0 5.85-3.487 8.259-7.611 8.259-3.883 0-6.22-2.587-7.095-4.687l3.056-1.258c0.551 1.293 1.882 2.824 4.039 2.824 2.649 0 4.279-1.626 4.279-4.663v-1.139h-0.12c-0.791 0.949-2.302 1.803-4.219 1.803-4.003 0-7.671-3.453-7.671-7.902 0-4.474 3.668-7.962 7.671-7.962 1.906 0 3.428 0.842 4.219 1.768h0.12v-1.139zM73.184 16.97c0-2.8-1.882-4.841-4.279-4.841-2.421 0-4.459 2.041-4.459 4.841 0 2.765 2.038 4.77 4.459 4.77 2.397 0.012 4.279-2.005 4.279-4.77v0z"></path>
<path fill="#fff" style="fill: var(--color1, #fff)" opacity="0.2" d="M41.985 16.911c0 4.568-3.596 7.926-8.006 7.926s-8.006-3.37-8.006-7.926c0-4.592 3.596-7.938 8.006-7.938s8.006 3.346 8.006 7.938zM38.485 16.911c0-2.848-2.086-4.806-4.507-4.806s-4.507 1.958-4.507 4.806c0 2.824 2.086 4.806 4.507 4.806s4.507-1.982 4.507-4.806z"></path>
<path fill="#fff" style="fill: var(--color1, #fff)" opacity="0.2" d="M59.472 16.946c0 4.568-3.596 7.926-8.006 7.926s-8.006-3.358-8.006-7.926c0-4.592 3.596-7.926 8.006-7.926s8.006 3.322 8.006 7.926zM55.96 16.946c0-2.848-2.085-4.806-4.507-4.806s-4.507 1.958-4.507 4.806c0 2.824 2.086 4.806 4.507 4.806 2.433 0 4.507-1.994 4.507-4.806z"></path>
<path fill="#fff" style="fill: var(--color1, #fff)" opacity="0.2" d="M12.812 21.396c-5.022 0-8.953-4.011-8.953-8.982s3.931-8.982 8.953-8.982c2.709 0 4.686 1.056 6.149 2.409l2.409-2.385c-2.038-1.934-4.758-3.406-8.558-3.406-6.88 0-12.669 5.554-12.669 12.364s5.789 12.364 12.669 12.364c3.716 0 6.52-1.21 8.714-3.465 2.253-2.231 2.948-5.363 2.948-7.903 0-0.795-0.096-1.614-0.204-2.219h-11.458v3.299h8.162c-0.24 2.065-0.899 3.477-1.87 4.438-1.175 1.175-3.032 2.468-6.292 2.468z"></path>
</symbol>
<symbol id="icon-grommet-icons_figma" viewBox="0 0 32 32">
<path fill="#19bcfe" style="fill: var(--color2, #19bcfe)" opacity="0.78" d="M21.333 21.333c2.945 0 5.333-2.388 5.333-5.333s-2.388-5.333-5.333-5.333c-2.946 0-5.333 2.388-5.333 5.333s2.388 5.333 5.333 5.333z"></path>
<path fill="#09cf83" style="fill: var(--color3, #09cf83)" opacity="0.78" d="M10.667 32c1.415 0 2.771-0.562 3.771-1.562s1.562-2.357 1.562-3.771v-5.333h-5.333c-1.415 0-2.771 0.562-3.771 1.562s-1.562 2.357-1.562 3.771c0 1.415 0.562 2.771 1.562 3.771s2.357 1.562 3.771 1.562z"></path>
<path fill="#a259ff" style="fill: var(--color4, #a259ff)" opacity="0.78" d="M10.667 21.333h5.333v-10.667h-5.333c-1.415 0-2.771 0.562-3.771 1.562s-1.562 2.357-1.562 3.771c0 1.415 0.562 2.771 1.562 3.771s2.357 1.562 3.771 1.562z"></path>
<path fill="#f24e1e" style="fill: var(--color5, #f24e1e)" opacity="0.78" d="M10.667 10.667h5.333v-10.667h-5.333c-1.415 0-2.771 0.562-3.771 1.562s-1.562 2.357-1.562 3.771c0 1.414 0.562 2.771 1.562 3.771s2.357 1.562 3.771 1.562z"></path>
<path fill="#ff7262" style="fill: var(--color6, #ff7262)" opacity="0.78" d="M21.333 10.667h-5.333v-10.667h5.333c1.414 0 2.771 0.562 3.771 1.562s1.562 2.357 1.562 3.771c0 1.414-0.562 2.771-1.562 3.771s-2.357 1.562-3.771 1.562z"></path>
</symbol>
<symbol id="icon-grommet-icons_slack" viewBox="0 0 33 32">
<path fill="#e01e5a" style="fill: var(--color7, #e01e5a)" opacity="0.78" d="M6.836 20.11c0 0.439-0.088 0.874-0.259 1.28s-0.422 0.774-0.738 1.085c-0.316 0.311-0.692 0.557-1.105 0.724s-0.856 0.254-1.304 0.253c-0.447 0-0.89-0.086-1.303-0.254s-0.788-0.414-1.104-0.725c-0.316-0.31-0.567-0.679-0.738-1.085s-0.259-0.84-0.258-1.279c-0-0.439 0.087-0.874 0.258-1.28s0.422-0.774 0.738-1.085c0.316-0.311 0.692-0.557 1.105-0.725s0.856-0.254 1.303-0.254h3.406v3.343h-0.001zM8.538 20.11c-0-0.439 0.087-0.874 0.258-1.28s0.422-0.774 0.738-1.085c0.316-0.311 0.692-0.557 1.105-0.725s0.856-0.254 1.303-0.254c0.447-0 0.89 0.086 1.303 0.254s0.789 0.414 1.105 0.725c0.316 0.31 0.567 0.679 0.738 1.085s0.259 0.841 0.258 1.28v8.358c0 0.439-0.087 0.874-0.258 1.28s-0.422 0.774-0.738 1.085-0.692 0.557-1.105 0.725c-0.413 0.168-0.856 0.254-1.303 0.254s-0.89-0.086-1.303-0.254-0.789-0.414-1.105-0.725c-0.316-0.31-0.567-0.679-0.738-1.085s-0.259-0.841-0.258-1.28v-8.358z"></path>
<path fill="#36c5f0" style="fill: var(--color8, #36c5f0)" opacity="0.78" d="M11.942 6.687c-0.447 0-0.89-0.086-1.304-0.254s-0.789-0.414-1.105-0.725c-0.316-0.311-0.567-0.679-0.738-1.085s-0.259-0.841-0.258-1.28c-0-0.439 0.088-0.874 0.258-1.28s0.422-0.774 0.738-1.085c0.316-0.31 0.692-0.557 1.105-0.725s0.856-0.254 1.303-0.254c0.447-0 0.89 0.086 1.303 0.254s0.789 0.414 1.105 0.725c0.316 0.31 0.567 0.679 0.738 1.085s0.259 0.841 0.258 1.28v3.345l-3.404-0.001zM11.942 8.383c0.447-0 0.89 0.086 1.303 0.254s0.789 0.414 1.105 0.725c0.316 0.31 0.567 0.679 0.738 1.085s0.259 0.841 0.258 1.28c0 0.439-0.087 0.874-0.258 1.28s-0.422 0.774-0.738 1.085c-0.316 0.31-0.692 0.557-1.105 0.725s-0.856 0.254-1.303 0.254h-8.538c-0.447 0-0.89-0.086-1.303-0.254s-0.788-0.414-1.105-0.724c-0.316-0.31-0.567-0.679-0.738-1.084s-0.259-0.84-0.259-1.279c-0-0.439 0.087-0.874 0.258-1.28s0.422-0.774 0.738-1.085 0.692-0.557 1.105-0.725c0.413-0.168 0.856-0.254 1.303-0.254l8.538-0.001z"></path>
<path fill="#2eb67d" style="fill: var(--color9, #2eb67d)" opacity="0.78" d="M25.587 11.726c-0-0.439 0.087-0.874 0.259-1.28s0.422-0.774 0.738-1.085c0.316-0.31 0.692-0.557 1.105-0.724s0.856-0.254 1.304-0.253c0.447-0 0.89 0.086 1.303 0.254s0.789 0.414 1.105 0.725c0.316 0.31 0.567 0.679 0.738 1.085s0.259 0.841 0.258 1.28c0 0.439-0.087 0.874-0.258 1.28s-0.422 0.774-0.738 1.085c-0.316 0.31-0.692 0.557-1.105 0.725s-0.856 0.254-1.303 0.254h-3.406v-3.343zM23.885 11.726c0 0.439-0.087 0.874-0.258 1.28s-0.422 0.774-0.738 1.085c-0.316 0.31-0.692 0.557-1.105 0.725s-0.856 0.254-1.303 0.254c-0.447 0.001-0.89-0.086-1.304-0.253s-0.789-0.414-1.105-0.724c-0.316-0.31-0.567-0.679-0.738-1.085s-0.259-0.841-0.259-1.28v-8.383c-0-0.439 0.087-0.874 0.259-1.28s0.422-0.774 0.738-1.085c0.316-0.31 0.692-0.557 1.105-0.724s0.856-0.254 1.304-0.253c0.447-0 0.89 0.086 1.303 0.254s0.789 0.414 1.105 0.725c0.316 0.31 0.567 0.679 0.738 1.085s0.259 0.841 0.258 1.28v8.383z"></path>
<path fill="#ecb22e" style="fill: var(--color10, #ecb22e)" opacity="0.78" d="M20.48 25.124c0.447-0 0.89 0.086 1.303 0.254s0.789 0.414 1.105 0.725c0.316 0.311 0.567 0.679 0.738 1.085s0.259 0.841 0.258 1.28c0.001 0.439-0.087 0.874-0.258 1.28s-0.422 0.775-0.738 1.085c-0.316 0.311-0.692 0.557-1.105 0.725s-0.856 0.254-1.304 0.254c-0.447 0-0.89-0.086-1.304-0.254s-0.789-0.414-1.105-0.725c-0.316-0.311-0.567-0.679-0.738-1.085s-0.259-0.841-0.258-1.28v-3.343h3.404zM20.48 23.452c-0.447 0-0.89-0.086-1.303-0.254s-0.789-0.414-1.105-0.725c-0.316-0.311-0.567-0.679-0.738-1.085s-0.259-0.841-0.258-1.28c-0-0.439 0.087-0.874 0.258-1.28s0.422-0.774 0.738-1.085c0.316-0.311 0.692-0.557 1.105-0.725s0.856-0.254 1.303-0.254h8.538c0.447-0 0.89 0.086 1.303 0.254s0.789 0.414 1.105 0.725c0.316 0.31 0.567 0.679 0.738 1.085s0.259 0.841 0.258 1.28c0 0.439-0.087 0.874-0.258 1.28s-0.422 0.774-0.738 1.085c-0.316 0.31-0.692 0.557-1.105 0.725s-0.856 0.254-1.303 0.254h-8.538z"></path>
</symbol>
<symbol id="icon-header-logo" viewBox="0 0 29 32">
<path fill="#fff" style="fill: var(--color1, #fff)" d="M15.948 7.907c-0.484 0-0.954 0.060-1.403 0.172 0.289-2.609 1.331-4.989 2.904-6.923 6.256 0.741 11.108 6.065 11.108 12.521v9.202c-0.251 0.014-0.504 0.021-0.759 0.021-5.005 0-9.368-2.757-11.649-6.839h5.569v-2.385c0-3.187-2.583-5.77-5.77-5.77z"></path>
<path fill="#fff" style="fill: var(--color1, #fff)" d="M0.373 14.474c0-7.747 6.28-14.026 14.026-14.026 3.873 0 7.38 1.57 9.918 4.108-2.34-2.34-5.503-3.857-9.017-4.080-2.364 2.616-3.803 6.083-3.803 9.887 0 0.284 0.008 0.566 0.024 0.845-0.904 0.798-1.475 1.965-1.475 3.266v0.967l2.348 0c2.070 5.645 7.492 9.673 13.854 9.673 0.739 0 1.466-0.054 2.176-0.159v5.963h-9.673v-5.804h-8.706v5.804h-9.673v-16.445z"></path>
</symbol>
<symbol id="icon-heart" viewBox="0 0 32 32">
<path fill="#fff" style="fill: var(--color1, #fff)" opacity="0.38" d="M22.667 6c-2.8 0-5.267 1.4-6.667 3.6-1.4-2.2-3.867-3.6-6.667-3.6-4.4 0-8 3.6-8 8 0 7.933 14.667 16 14.667 16s14.667-8 14.667-16c0-4.4-3.6-8-8-8z"></path>
</symbol>
<symbol id="icon-Illustration" viewBox="0 0 21 32">
<path fill="#000" style="fill: var(--color11, #000)" opacity="0.4" d="M12.033 9.16c-0.259-0.149-0.445-0.152-0.558-0.012-0.116 0.14-0.171 0.378-0.171 0.711v1.799c0 0.342-0.030 0.625-0.095 0.851-0.064 0.235-0.171 0.4-0.317 0.497-0.143 0.101-0.338 0.125-0.585 0.079-0.241-0.043-0.543-0.171-0.903-0.378l-0.171-0.101v-1.418l0.217 0.125c0.259 0.149 0.43 0.168 0.515 0.061 0.092-0.107 0.137-0.326 0.137-0.659v-1.586c0-0.415 0.040-0.741 0.122-0.979 0.079-0.241 0.241-0.393 0.482-0.461-0.241-0.345-0.403-0.686-0.482-1.019s-0.119-0.705-0.119-1.119v-1.586c0-0.332-0.046-0.607-0.137-0.817-0.085-0.207-0.259-0.387-0.515-0.537l-0.217-0.125v-1.418l0.171 0.101c0.36 0.207 0.662 0.43 0.903 0.665 0.247 0.238 0.442 0.488 0.585 0.756 0.149 0.268 0.256 0.555 0.317 0.863 0.064 0.299 0.095 0.619 0.095 0.961v1.799c0 0.332 0.058 0.637 0.171 0.909 0.116 0.271 0.302 0.485 0.558 0.631l-0.003 1.406z"></path>
<path fill="#000" style="fill: var(--color11, #000)" opacity="0.4" d="M5.501 3.948c0.259 0.149 0.445 0.152 0.558 0.012 0.116-0.14 0.171-0.378 0.171-0.711v-1.799c0-0.342 0.030-0.625 0.095-0.851 0.064-0.235 0.168-0.4 0.311-0.5 0.149-0.098 0.345-0.122 0.585-0.079 0.247 0.046 0.552 0.174 0.912 0.384l0.171 0.101v1.418l-0.216-0.125c-0.259-0.149-0.433-0.171-0.525-0.064-0.085 0.11-0.128 0.329-0.128 0.665v1.586c0 0.412-0.040 0.741-0.122 0.979-0.079 0.241-0.241 0.393-0.482 0.461 0.241 0.345 0.402 0.686 0.482 1.019s0.119 0.705 0.119 1.119v1.586c0 0.332 0.043 0.604 0.128 0.814 0.091 0.21 0.265 0.393 0.525 0.54l0.216 0.125v1.418l-0.171-0.101c-0.36-0.207-0.665-0.433-0.912-0.668-0.241-0.235-0.436-0.485-0.585-0.756-0.143-0.265-0.247-0.552-0.308-0.857-0.064-0.299-0.095-0.619-0.095-0.961v-1.799c0-0.332-0.058-0.637-0.171-0.909-0.116-0.271-0.302-0.485-0.558-0.631v-1.415z"></path>
<path fill="#000" style="fill: var(--color11, #000)" opacity="0.15" d="M12.915 0.392l6.438 3.718-0.003 15.435-6.438-3.715 0.003-15.438z"></path>
<path fill="#587298" style="fill: var(--color12, #587298)" d="M11.704 2.414l5.123 2.955v1.418l-5.123-2.955v-1.418z"></path>
<path fill="#000" style="fill: var(--color11, #000)" opacity="0.2" d="M13.753 8.98l4.855 2.803v4.291l-4.855-2.803v-4.291z"></path>
<path fill="#fff" style="fill: var(--color1, #fff)" opacity="0.15" d="M13.704 5.69l4.928 2.845v0.485l-4.928-2.845v-0.485z"></path>
<path fill="#fff" style="fill: var(--color1, #fff)" opacity="0.15" d="M13.704 6.666l4.26 2.458v0.485l-4.26-2.458v-0.485z"></path>
<path fill="#fff" style="fill: var(--color1, #fff)" opacity="0.15" d="M13.704 7.629l3.617 2.086v0.485l-3.617-2.086v-0.485z"></path>
<path fill="#000" style="fill: var(--color11, #000)" opacity="0.2" d="M12.915 0.392l6.438 3.718v2.068l-6.441-3.715 0.003-2.071z"></path>
<path fill="#fff" style="fill: var(--color1, #fff)" opacity="0.2" d="M14.522 2.369c0 0.314-0.183 0.461-0.409 0.329s-0.409-0.488-0.409-0.802c0-0.314 0.183-0.461 0.409-0.329s0.409 0.491 0.409 0.802z"></path>
<path fill="#000" style="fill: var(--color11, #000)" opacity="0.15" d="M1.314 5.119l19.816 11.437-0.003 15.444-19.816-11.437 0.003-15.444z"></path>
<path fill="#ea8c4f" style="fill: var(--color13, #ea8c4f)" d="M0 8.925l5.12 2.955v1.418l-5.12-2.952v-1.421z"></path>
<path fill="#fff" style="fill: var(--color1, #fff)" opacity="0.15" d="M2.65 12.823l11.369 6.563v0.485l-11.369-6.563v-0.485z"></path>
<path fill="#fff" style="fill: var(--color1, #fff)" opacity="0.15" d="M2.65 13.799l9.807 5.66v0.485l-9.807-5.66v-0.485z"></path>
<path fill="#fff" style="fill: var(--color1, #fff)" opacity="0.15" d="M2.65 14.766l8.347 4.819v0.485l-8.347-4.819v-0.485z"></path>
<path fill="#000" style="fill: var(--color11, #000)" opacity="0.2" d="M10.323 20.914l9.996 5.77v4.291l-9.996-5.77v-4.291z"></path>
<path fill="#fff" style="fill: var(--color1, #fff)" opacity="0.15" d="M11.076 22.198l1.506 0.869v1.418l-1.506-0.869v-1.418z"></path>
<path fill="#fff" style="fill: var(--color1, #fff)" opacity="0.15" d="M12.921 23.333l1.506 0.869v1.418l-1.506-0.869v-1.418z"></path>
<path fill="#fff" style="fill: var(--color1, #fff)" opacity="0.15" d="M14.775 24.385l1.506 0.869v1.418l-1.506-0.869v-1.418z"></path>
<path fill="#fff" style="fill: var(--color1, #fff)" opacity="0.15" d="M16.629 25.504l1.506 0.869v1.418l-1.506-0.869v-1.418z"></path>
<path fill="#000" style="fill: var(--color11, #000)" opacity="0.2" d="M0.79 15.248l8.322 4.803v4.291l-8.322-4.806v-4.288z"></path>
<path fill="#fff" style="fill: var(--color1, #fff)" opacity="0.15" d="M1.628 16.831l6.611 3.815v0.485l-6.611-3.815v-0.485z"></path>
<path fill="#fff" style="fill: var(--color1, #fff)" opacity="0.15" d="M1.628 17.806l5.294 3.056v0.485l-5.294-3.059v-0.482z"></path>
<path fill="#000" style="fill: var(--color11, #000)" opacity="0.2" d="M1.314 5.119l19.788 11.424v2.092l-19.788-11.421v-2.095z"></path>
<path fill="#fff" style="fill: var(--color1, #fff)" opacity="0.2" d="M3.47 7.41c0 0.314-0.183 0.461-0.409 0.329s-0.409-0.488-0.409-0.802c0-0.314 0.183-0.46 0.409-0.329s0.409 0.491 0.409 0.802z"></path>
</symbol>
<symbol id="icon-instagram" viewBox="0 0 32 32">
<path fill="#fff" style="fill: var(--color1, #fff)" opacity="0.78" d="M15.999 9.836c-1.635 0-3.203 0.65-4.36 1.806s-1.806 2.724-1.806 4.36c0 1.635 0.65 3.203 1.806 4.36s2.724 1.806 4.36 1.806 3.203-0.649 4.36-1.806c1.156-1.156 1.806-2.724 1.806-4.36s-0.65-3.203-1.806-4.36c-1.156-1.156-2.724-1.806-4.36-1.806zM15.999 20.005c-1.062 0-2.081-0.422-2.832-1.173s-1.173-1.77-1.173-2.832c0-1.062 0.422-2.081 1.173-2.832s1.77-1.173 2.832-1.173 2.081 0.422 2.832 1.173c0.751 0.751 1.173 1.77 1.173 2.832s-0.422 2.081-1.173 2.832c-0.751 0.751-1.77 1.173-2.832 1.173z"></path>
<path fill="#fff" style="fill: var(--color1, #fff)" opacity="0.78" d="M22.408 11.047c0.794 0 1.437-0.644 1.437-1.437s-0.644-1.437-1.437-1.437-1.437 0.644-1.437 1.437c0 0.794 0.644 1.437 1.437 1.437z"></path>
<path fill="#fff" style="fill: var(--color1, #fff)" opacity="0.78" d="M27.377 8.148c-0.309-0.797-0.78-1.521-1.385-2.125s-1.329-1.076-2.126-1.384c-0.933-0.35-1.918-0.54-2.915-0.56-1.284-0.056-1.691-0.072-4.947-0.072s-3.673 0-4.947 0.072c-0.995 0.019-1.98 0.209-2.912 0.56-0.797 0.308-1.522 0.779-2.126 1.384s-1.076 1.328-1.384 2.126c-0.35 0.933-0.539 1.918-0.559 2.915-0.057 1.283-0.075 1.689-0.075 4.947 0 3.256 0 3.671 0.075 4.947 0.020 0.997 0.208 1.981 0.559 2.916 0.309 0.797 0.781 1.521 1.386 2.125s1.329 1.076 2.126 1.384c0.93 0.364 1.915 0.567 2.913 0.6 1.284 0.056 1.691 0.073 4.947 0.073s3.673 0 4.947-0.073c0.996-0.020 1.982-0.209 2.915-0.559 0.797-0.309 1.521-0.781 2.125-1.385s1.076-1.328 1.385-2.125c0.351-0.933 0.539-1.917 0.559-2.915 0.057-1.283 0.075-1.689 0.075-4.947s0-3.671-0.075-4.947c-0.016-1.010-0.205-2.010-0.561-2.956zM25.753 20.857c-0.009 0.768-0.149 1.53-0.415 2.251-0.2 0.519-0.507 0.989-0.9 1.382s-0.864 0.699-1.383 0.899c-0.713 0.265-1.466 0.405-2.227 0.415-1.267 0.059-1.624 0.073-4.872 0.073-3.251 0-3.583 0-4.873-0.073-0.76-0.009-1.513-0.149-2.225-0.415-0.52-0.199-0.993-0.504-1.388-0.897s-0.703-0.864-0.904-1.384c-0.262-0.713-0.402-1.465-0.415-2.225-0.057-1.267-0.071-1.624-0.071-4.872 0-3.249 0-3.581 0.071-4.873 0.009-0.768 0.149-1.529 0.415-2.249 0.407-1.052 1.24-1.88 2.292-2.283 0.713-0.264 1.465-0.404 2.225-0.415 1.268-0.057 1.624-0.073 4.873-0.073s3.583 0 4.872 0.073c0.761 0.009 1.514 0.149 2.227 0.415 0.519 0.2 0.989 0.507 1.383 0.9s0.7 0.864 0.9 1.383c0.262 0.713 0.402 1.466 0.415 2.225 0.057 1.268 0.072 1.624 0.072 4.873 0 3.248 0 3.597-0.057 4.872h-0.015v-0.001z"></path>
</symbol>
<symbol id="icon-logos_invision-icon" viewBox="0 0 33 32">
<path fill="#f06" style="fill: var(--color14, #f06)" opacity="0.78" d="M0 2c0-1.105 0.895-2 2-2h28.5c1.105 0 2 0.895 2 2v27.912c0 1.105-0.895 2-2 2h-28.5c-1.105 0-2-0.895-2-2v-27.912z"></path>
<path fill="#fff" style="fill: var(--color1, #fff)" opacity="0.78" d="M11.059 10.269c1.028-0.015 1.851-0.842 1.841-1.852s-0.849-1.821-1.877-1.816-1.859 0.824-1.859 1.834c0.001 0.243 0.051 0.483 0.147 0.707s0.236 0.427 0.412 0.598 0.385 0.305 0.614 0.396c0.229 0.091 0.475 0.136 0.722 0.134v-0z"></path>
<path fill="#fff" style="fill: var(--color1, #fff)" opacity="0.78" d="M7.129 20.089c-0.108 0.452-0.164 0.914-0.168 1.377 0 1.615 0.892 2.687 2.787 2.687 1.572 0 2.847-0.916 3.764-2.397l-0.56 2.208h3.12l1.785-7.021c0.446-1.779 1.309-2.702 2.619-2.702 1.031 0 1.672 0.629 1.672 1.67 0.005 0.333-0.042 0.666-0.139 0.985l-0.919 3.228c-0.131 0.445-0.197 0.905-0.195 1.368 0 1.532 0.919 2.655 2.842 2.655 1.645 0 2.955-1.039 3.679-3.529l-1.226-0.466c-0.614 1.67-1.143 1.971-1.56 1.971s-0.642-0.273-0.642-0.821c0.012-0.287 0.059-0.572 0.139-0.849l0.893-3.146c0.201-0.647 0.304-1.319 0.307-1.995 0-2.354-1.45-3.582-3.206-3.582-1.645 0-3.316 1.456-4.152 2.989l0.612-2.752h-4.765l-0.669 2.425h2.231l-1.373 5.392c-1.079 2.354-3.060 2.392-3.309 2.337-0.408-0.091-0.668-0.243-0.668-0.766 0.012-0.424 0.077-0.844 0.195-1.252l2.090-8.143h-5.294l-0.668 2.425h2.201l-1.424 5.702z"></path>
</symbol>
<symbol id="icon-logos_sketch" viewBox="0 0 36 32">
<path fill="#fdb300" style="fill: var(--color15, #fdb300)" d="M17.965 0l-10.126 1.051-7.839 10.333 17.965 20.541 17.965-20.541-7.839-10.333-10.126-1.051z"></path>
<path fill="#eb6c00" style="fill: var(--color16, #eb6c00)" d="M0 11.384l17.965 20.541-10.688-20.541h-7.277z"></path>
<path fill="#eb6c00" style="fill: var(--color16, #eb6c00)" d="M28.653 11.384l-10.688 20.541 17.965-20.541h-7.277z"></path>
<path fill="#fdad00" style="fill: var(--color17, #fdad00)" d="M7.277 11.384l10.688 20.541 10.688-20.541h-21.377z"></path>
<path fill="#fdd231" style="fill: var(--color18, #fdd231)" d="M7.839 1.051l-0.563 10.333 10.688-11.384-10.126 1.051z"></path>
<path fill="#fdd231" style="fill: var(--color18, #fdd231)" d="M28.653 11.384l-0.562-10.333-10.126-1.051 10.688 11.384z"></path>
<path fill="#fdad00" style="fill: var(--color17, #fdad00)" d="M28.653 11.384h7.277l-7.839-10.333 0.563 10.333z"></path>
<path fill="#fdad00" style="fill: var(--color17, #fdad00)" d="M0 11.384h7.277l0.563-10.333-7.839 10.333z"></path>
<path fill="#feeeb7" style="fill: var(--color19, #feeeb7)" d="M17.965 0l-10.688 11.384h21.377l-10.688-11.384z"></path>
</symbol>
<symbol id="icon-microsoft" viewBox="0 0 147 32">
<path fill="#fff" style="fill: var(--color1, #fff)" opacity="0.2" d="M147.012 14.381v-2.619h-3.211v-4.071l-0.108 0.034-3.075 0.953v3.085h-4.76v-1.718c0-0.8 0.177-1.413 0.525-1.821 0.345-0.404 0.84-0.609 1.47-0.609 0.453 0 0.923 0.108 1.395 0.322l0.119 0.053v-2.758l-0.056-0.021c-0.441-0.161-1.041-0.241-1.784-0.241-0.936 0-1.787 0.207-2.53 0.616s-1.326 0.994-1.736 1.738c-0.408 0.743-0.614 1.601-0.614 2.55v1.889h-2.236v2.619h2.236v11.032h3.209v-11.032h4.76v7.011c0 2.888 1.345 4.351 3.996 4.351 0.436 0 0.894-0.052 1.363-0.153 0.477-0.104 0.801-0.208 0.992-0.319l0.043-0.025v-2.643l-0.131 0.087c-0.174 0.118-0.391 0.214-0.645 0.285-0.255 0.073-0.469 0.109-0.634 0.109-0.621 0-1.080-0.17-1.366-0.504-0.289-0.337-0.434-0.928-0.434-1.754v-6.445h3.211zM123.246 23.085c-1.164 0-2.083-0.392-2.73-1.162-0.651-0.775-0.981-1.879-0.981-3.282 0-1.447 0.33-2.58 0.981-3.369 0.648-0.783 1.557-1.181 2.704-1.181 1.113 0 1.999 0.38 2.633 1.129 0.638 0.753 0.962 1.877 0.962 3.342 0 1.482-0.305 2.621-0.904 3.383-0.597 0.756-1.493 1.14-2.664 1.14zM123.389 11.434c-2.222 0-3.988 0.659-5.246 1.96s-1.896 3.101-1.896 5.352c0 2.137 0.622 3.857 1.851 5.109s2.898 1.888 4.965 1.888c2.155 0 3.885-0.669 5.143-1.988s1.895-3.101 1.895-5.299c0-2.171-0.598-3.903-1.778-5.147-1.181-1.245-2.841-1.876-4.935-1.876zM111.073 11.434c-1.512 0-2.762 0.392-3.717 1.164-0.961 0.777-1.448 1.796-1.448 3.029 0 0.641 0.105 1.21 0.312 1.693 0.208 0.484 0.531 0.911 0.959 1.269 0.425 0.355 1.081 0.727 1.95 1.106 0.731 0.305 1.276 0.562 1.622 0.765 0.339 0.199 0.579 0.399 0.715 0.594 0.132 0.191 0.199 0.451 0.199 0.774 0 0.917-0.678 1.363-2.073 1.363-0.517 0-1.108-0.109-1.755-0.325-0.642-0.213-1.248-0.524-1.797-0.923l-0.133-0.097v3.13l0.049 0.023c0.454 0.212 1.027 0.391 1.701 0.532s1.285 0.213 1.817 0.213c1.64 0 2.962-0.394 3.925-1.171 0.97-0.782 1.462-1.825 1.462-3.101 0-0.92-0.265-1.709-0.786-2.346-0.518-0.631-1.417-1.211-2.672-1.723-0.999-0.406-1.639-0.743-1.903-1.002-0.254-0.25-0.384-0.604-0.384-1.051 0-0.397 0.16-0.715 0.488-0.973 0.33-0.259 0.789-0.391 1.365-0.391 0.535 0 1.082 0.085 1.626 0.253s1.022 0.392 1.42 0.667l0.131 0.091v-2.969l-0.050-0.022c-0.368-0.16-0.853-0.296-1.442-0.407-0.586-0.11-1.118-0.165-1.581-0.165zM97.541 23.085c-1.165 0-2.083-0.391-2.731-1.162-0.651-0.775-0.981-1.879-0.981-3.282 0-1.447 0.33-2.58 0.981-3.369 0.647-0.783 1.557-1.181 2.704-1.181 1.112 0 1.998 0.38 2.633 1.129 0.637 0.753 0.961 1.877 0.961 3.342 0 1.482-0.304 2.621-0.904 3.383-0.596 0.756-1.492 1.14-2.664 1.14v-0zM97.684 11.434c-2.223 0-3.989 0.659-5.246 1.96s-1.896 3.101-1.896 5.352c0 2.138 0.623 3.857 1.851 5.109s2.899 1.888 4.966 1.888c2.154 0 3.884-0.669 5.142-1.988s1.896-3.101 1.896-5.299c0-2.171-0.598-3.903-1.778-5.147s-2.841-1.876-4.934-1.876v0zM85.67 14.127v-2.364h-3.17v13.651h3.17v-6.983c0-1.188 0.266-2.163 0.79-2.9 0.518-0.728 1.208-1.097 2.050-1.097 0.286 0 0.606 0.047 0.953 0.142 0.344 0.094 0.593 0.195 0.74 0.303l0.133 0.098v-3.237l-0.051-0.022c-0.296-0.127-0.713-0.191-1.242-0.191-0.796 0-1.509 0.259-2.12 0.77-0.536 0.449-0.923 1.064-1.22 1.831h-0.034zM76.823 11.434c-1.455 0-2.752 0.316-3.856 0.938-1.106 0.624-1.961 1.515-2.542 2.648-0.579 1.131-0.873 2.451-0.873 3.923 0 1.29 0.285 2.473 0.848 3.517 0.564 1.045 1.362 1.862 2.372 2.429 1.009 0.566 2.175 0.854 3.466 0.854 1.506 0 2.793-0.305 3.824-0.907l0.042-0.024v-2.942l-0.133 0.099c-0.475 0.348-0.997 0.624-1.551 0.818-0.56 0.198-1.071 0.298-1.519 0.298-1.243 0-2.242-0.395-2.967-1.172-0.727-0.778-1.095-1.871-1.095-3.247 0-1.384 0.384-2.505 1.141-3.332 0.754-0.824 1.755-1.243 2.973-1.243 1.042 0 2.057 0.357 3.018 1.063l0.133 0.098v-3.1l-0.043-0.025c-0.361-0.205-0.854-0.374-1.467-0.502-0.609-0.128-1.205-0.193-1.772-0.193h0.001zM67.368 11.763h-3.17v13.651h3.17v-13.651l-0-0zM65.815 5.947c-0.522 0-0.976 0.18-1.351 0.536-0.375 0.358-0.566 0.808-0.566 1.339 0 0.523 0.188 0.965 0.56 1.313 0.369 0.347 0.826 0.523 1.356 0.523s0.989-0.176 1.363-0.523c0.376-0.348 0.567-0.79 0.567-1.313 0-0.513-0.186-0.959-0.552-1.325s-0.829-0.551-1.378-0.551zM57.906 10.755v14.658h3.235v-19.048h-4.477l-5.692 14.148-5.523-14.148h-4.66v19.048h3.040v-14.66h0.105l5.833 14.659h2.294l5.741-14.658h0.105z"></path>
<path fill="#fff" style="fill: var(--color1, #fff)" opacity="0.2" d="M14.914 15.106h-14.914v-15.106h14.914v15.106z"></path>
<path fill="#fff" style="fill: var(--color1, #fff)" opacity="0.2" d="M31.38 15.106h-14.913v-15.106h14.913v15.106z"></path>
<path fill="#fff" style="fill: var(--color1, #fff)" opacity="0.2" d="M14.913 31.791h-14.913v-15.106h14.913v15.106z"></path>
<path fill="#fff" style="fill: var(--color1, #fff)" opacity="0.2" d="M31.38 31.791h-14.913v-15.106h14.913v15.106z"></path>
</symbol>
<symbol id="icon-notion" viewBox="0 0 32 32">
<path fill="#fff" style="fill: var(--color1, #fff)" opacity="0.78" d="M5.716 29.218l-3.439-4.285c-0.828-1.031-1.277-2.299-1.277-3.603v-15.515c0-1.954 1.564-3.576 3.581-3.714l15.951-1.089c1.159-0.079 2.311 0.229 3.263 0.873l5.605 3.789c1.003 0.678 1.601 1.787 1.601 2.97v17.639c0 1.913-1.537 3.496-3.512 3.618l-17.704 1.090c-1.576 0.097-3.099-0.567-4.067-1.773z"></path>
<path fill="#000" style="fill: var(--color11, #000)" opacity="0.78" d="M11.248 13.579v-0.203c0-0.515 0.412-0.942 0.944-0.977l3.871-0.258 5.354 7.884v-6.919l-1.378-0.184v-0.097c0-0.521 0.422-0.951 0.96-0.978l3.523-0.18v0.507c0 0.238-0.177 0.441-0.419 0.482l-0.848 0.143v11.206l-1.064 0.366c-0.889 0.306-1.878-0.022-2.387-0.789l-5.198-7.843v7.486l1.6 0.306-0.022 0.148c-0.070 0.465-0.471 0.816-0.957 0.838l-3.979 0.177c-0.053-0.5 0.322-0.947 0.839-1.001l0.523-0.055v-9.981l-1.362-0.077z"></path>
<path fill="#000" style="fill: var(--color11, #000)" opacity="0.78" d="M20.675 2.967l-15.951 1.089c-0.955 0.065-1.696 0.833-1.696 1.759v15.515c0 0.87 0.299 1.715 0.851 2.402l3.439 4.285c0.556 0.693 1.431 1.074 2.337 1.018l17.704-1.090c0.907-0.056 1.614-0.783 1.614-1.662v-17.639c0-0.544-0.275-1.053-0.735-1.365l-5.605-3.789c-0.571-0.386-1.262-0.571-1.958-0.523zM5.515 6.057c-0.222-0.164-0.116-0.506 0.162-0.526l15.105-1.083c0.481-0.035 0.959 0.098 1.349 0.374l3.031 2.147c0.115 0.082 0.061 0.258-0.081 0.265l-15.996 0.87c-0.484 0.026-0.962-0.116-1.347-0.401l-2.223-1.646zM8.334 10.831c0-0.52 0.42-0.949 0.957-0.978l16.913-0.921c0.523-0.028 0.964 0.374 0.964 0.88v15.273c0 0.519-0.418 0.948-0.954 0.978l-16.806 0.956c-0.582 0.033-1.073-0.414-1.073-0.978v-15.211z"></path>
</symbol>
<symbol id="icon-phpstorm" viewBox="0 0 32 32">
<path fill="#000" style="fill: var(--color11, #000)" d="M18.103 6.949l-1.509-4.571-11.154-2.377-5.44 6.171 17.006 8.686 1.097-7.909z"></path>
<path fill="#000" style="fill: var(--color11, #000)" d="M12.8 18.926l-0.32-9.509-12.48-3.246 3.063 18.331 9.737-0.091v-5.486z"></path>
<path fill="#000" style="fill: var(--color11, #000)" d="M10.103 18.743l0.594-7.543 9.051-9.28 8.091 1.463 4.16 10.377-4.343 4.297-7.086-1.143-4.389 4.617-6.080-2.789z"></path>
<path fill="#000" style="fill: var(--color11, #000)" d="M19.749 1.92l-12.983 11.52 2.514 14.811 10.789 3.749 11.931-7.131-12.251-22.949z"></path>
<path fill="#000" style="fill: var(--color11, #000)" d="M6.126 6.126h19.749v19.749h-19.749v-19.749z"></path>
<path fill="#fff" style="fill: var(--color1, #fff)" d="M8 22.171h7.406v1.234h-7.406v-1.234z"></path>
<path fill="#fff" style="fill: var(--color1, #fff)" d="M7.909 8.686h3.337c1.966 0 3.154 1.143 3.154 2.834v0.046c0 1.92-1.463 2.88-3.337 2.88h-1.371v2.469h-1.783v-8.229zM11.154 12.8c0.914 0 1.417-0.549 1.417-1.234v-0.046c0-0.823-0.549-1.234-1.463-1.234h-1.371v2.514h1.417z"></path>
<path fill="#fff" style="fill: var(--color1, #fff)" d="M14.857 15.726l1.051-1.28c0.731 0.594 1.509 1.006 2.469 1.006 0.731 0 1.189-0.274 1.189-0.777v-0.046c0-0.457-0.274-0.686-1.646-1.051-1.646-0.411-2.743-0.869-2.743-2.514v-0.046c0-1.509 1.189-2.469 2.88-2.469 1.189 0 2.24 0.366 3.063 1.051l-0.96 1.371c-0.731-0.503-1.463-0.823-2.149-0.823s-1.051 0.32-1.051 0.731v0.046c0 0.549 0.366 0.731 1.783 1.097 1.646 0.457 2.606 1.051 2.606 2.469v0.046c0 1.646-1.234 2.56-3.017 2.56-1.234-0.046-2.469-0.503-3.474-1.371z"></path>
</symbol>
<symbol id="icon-procreate" viewBox="0 0 32 32">
<path fill="#1e252b" style="fill: var(--color20, #1e252b)" opacity="0.78" d="M2 12.133c0-3.547 0-5.321 0.69-6.675 0.607-1.192 1.576-2.161 2.768-2.768 1.355-0.69 3.128-0.69 6.675-0.69h7.733c3.547 0 5.32 0 6.675 0.69 1.192 0.607 2.161 1.576 2.768 2.768 0.69 1.355 0.69 3.128 0.69 6.675v7.733c0 3.547 0 5.32-0.69 6.675-0.607 1.192-1.576 2.161-2.768 2.768-1.355 0.69-3.128 0.69-6.675 0.69h-7.733c-3.547 0-5.321 0-6.675-0.69-1.192-0.607-2.161-1.576-2.768-2.768-0.69-1.355-0.69-3.128-0.69-6.675v-7.733z"></path>
<path fill="#000" style="fill: var(--color11, #000)" opacity="0.78" d="M9.867 16.4c-3.9 2.87-4.667 7.067-4.667 10.567 0.178-1.044 0.993-3.493 2.833-4.933 2.733-2.139 7.733-1.434 13.2-5.067s6-8.367 5.3-12c-0.486 3.506-2.146 5.034-4.433 6.4-4.967 2.967-8.067 1.967-12.233 5.033z"></path>
<path fill="#000" style="fill: var(--color11, #000)" opacity="0.78" d="M9.867 16.4c-3.9 2.87-4.667 7.067-4.667 10.567 0.178-1.044 0.993-3.493 2.833-4.933 2.733-2.139 7.733-1.434 13.2-5.067s6-8.367 5.3-12c-0.486 3.506-2.146 5.034-4.433 6.4-4.967 2.967-8.067 1.967-12.233 5.033z"></path>
<path fill="#000" style="fill: var(--color11, #000)" opacity="0.78" d="M5.247 25.532c0.214-3.162 1.241-6.645 4.62-9.132 2.172-1.599 4.054-2.092 6.062-2.619 1.172-0.307 2.386-0.626 3.727-1.182-0.489 0.467-2.812 1.557-4.564 2.285-1.748 0.726-3.59 1.492-5.125 2.515-3.078 2.052-4.33 5.622-4.72 8.132z"></path>
<path fill="#000" style="fill: var(--color11, #000)" opacity="0.78" d="M5.247 25.532c0.214-3.162 1.241-6.645 4.62-9.132 2.172-1.599 4.054-2.092 6.062-2.619 1.172-0.307 2.386-0.626 3.727-1.182-0.489 0.467-2.812 1.557-4.564 2.285-1.748 0.726-3.59 1.492-5.125 2.515-3.078 2.052-4.33 5.622-4.72 8.132z"></path>
<path fill="#000" style="fill: var(--color11, #000)" opacity="0.78" d="M24.218 14.371c-0.383 0.375-0.811 0.712-1.284 0.996-2.133 1.28-4.401 1.693-6.607 2.095-1.758 0.32-3.478 0.633-5.059 1.372-3.566 1.667-5.766 5.133-6.067 8.133 0 0-0 0-0 0s-0-0.001-0-0.002c0-0.229 0.003-0.461 0.011-0.695 0.018-0.372 0.057-0.784 0.12-1.223 0.471-2.467 1.751-5.723 4.636-7.646 1.221-0.814 2.637-1.465 4.046-2.063 1.239-0.407 2.355-0.66 3.419-0.901 1.674-0.38 3.218-0.729 4.902-1.602 3.534-1.831 4.46-5.595 4.211-7.808 0.528 2.805 0.315 6.255-2.327 9.346z"></path>
<path fill="#000" style="fill: var(--color11, #000)" opacity="0.78" d="M24.218 14.371c-0.383 0.375-0.811 0.712-1.284 0.996-2.133 1.28-4.401 1.693-6.607 2.094-1.758 0.32-3.478 0.633-5.059 1.372-2.051 0.958-3.65 2.512-4.696 4.23 0.923-1.297 2.328-2.745 4.063-3.297 1.692-0.538 3.306-0.594 4.983-0.652 0.481-0.017 0.966-0.033 1.461-0.062 1.332-0.485 2.728-1.138 4.156-2.086 1.231-0.818 2.211-1.691 2.984-2.596z"></path>
<path fill="#000" style="fill: var(--color11, #000)" opacity="0.78" d="M24.218 14.371c-0.383 0.375-0.811 0.712-1.284 0.996-2.133 1.28-4.401 1.693-6.607 2.094-1.758 0.32-3.478 0.633-5.059 1.372-2.051 0.958-3.65 2.512-4.696 4.23 0.923-1.297 2.328-2.745 4.063-3.297 1.692-0.538 3.306-0.594 4.983-0.652 0.481-0.017 0.966-0.033 1.461-0.062 1.332-0.485 2.728-1.138 4.156-2.086 1.231-0.818 2.211-1.691 2.984-2.596z"></path>
<path fill="#000" style="fill: var(--color11, #000)" opacity="0.78" d="M26.544 5.025c-0.004-0.020-0.007-0.039-0.011-0.058-0.486 3.506-2.146 5.034-4.433 6.4-0.866 0.518-1.676 0.914-2.444 1.233-0.489 0.467-2.812 1.557-4.564 2.285l-0 0c-0.357 0.148-0.717 0.298-1.078 0.451 1.239-0.407 2.355-0.66 3.419-0.901 1.674-0.38 3.218-0.729 4.902-1.602 3.534-1.831 4.46-5.595 4.211-7.808z"></path>
<path fill="#000" style="fill: var(--color11, #000)" opacity="0.78" d="M26.544 5.025c-0.004-0.020-0.007-0.039-0.011-0.058-0.486 3.506-2.146 5.034-4.433 6.4-0.866 0.518-1.676 0.914-2.444 1.233-0.489 0.467-2.812 1.557-4.564 2.285l-0 0c-0.357 0.148-0.717 0.298-1.078 0.451 1.239-0.407 2.355-0.66 3.419-0.901 1.674-0.38 3.218-0.729 4.902-1.602 3.534-1.831 4.46-5.595 4.211-7.808z"></path>
</symbol>
<symbol id="icon-slack" viewBox="0 0 127 32">
<path fill="#fff" style="fill: var(--color1, #fff)" opacity="0.2" d="M40.481 25.079l1.58-3.652c1.708 1.268 3.977 1.927 6.22 1.927 1.657 0 2.702-0.634 2.702-1.598-0.026-2.688-9.916-0.583-9.993-7.329-0.025-3.423 3.034-6.061 7.367-6.061 2.575 0 5.149 0.634 6.985 2.079l-1.479 3.728c-1.682-1.065-3.773-1.826-5.761-1.826-1.351 0-2.243 0.634-2.243 1.445 0.026 2.637 9.993 1.192 10.095 7.633 0 3.5-2.982 5.959-7.265 5.959-3.136 0-6.016-0.736-8.208-2.308zM101.126 20.109l4.359 2.409c-1.632 2.916-4.742 4.869-8.336 4.869-5.277 0-9.559-4.26-9.559-9.509s4.283-9.509 9.559-9.509c3.569 0 6.704 1.978 8.336 4.869l-4.359 2.409c-0.79-1.369-2.269-2.307-3.977-2.307-2.523 0-4.563 2.029-4.563 4.539s2.040 4.539 4.563 4.539c1.708 0 3.187-0.938 3.977-2.308h0.001zM58.147 0.482h5.455v26.55h-5.455v-26.55zM107.626 0.482h5.456v15.595l6.169-7.329h6.679l-7.622 8.825 8.234 9.459h-6.984l-6.475-7.962v7.962h-5.456v-26.55zM79.815 20.16v-4.489c-0.79-1.319-2.422-2.333-4.257-2.333-2.524 0-4.563 2.029-4.563 4.539s2.039 4.539 4.563 4.539c1.835 0 3.466-0.964 4.257-2.257v0zM79.815 8.749h5.456v18.258h-5.456v-2.155c-0.892 1.496-3.11 2.536-5.43 2.536-4.793 0-8.566-4.26-8.566-9.535s3.773-9.484 8.566-9.484c2.32 0 4.537 1.040 5.43 2.536v-2.156z"></path>
<path fill="#fff" style="fill: var(--color1, #fff)" opacity="0.2" d="M6.755 20.134c0 1.851-1.504 3.347-3.365 3.347-0.442 0-0.88-0.086-1.288-0.254s-0.78-0.415-1.092-0.726c-0.313-0.311-0.56-0.68-0.729-1.086s-0.256-0.842-0.255-1.282c0-1.851 1.504-3.347 3.365-3.347h3.365v3.347zM8.438 20.134c0-1.851 1.504-3.347 3.365-3.347s3.365 1.496 3.365 3.347v8.368c0 1.851-1.504 3.347-3.365 3.347-0.442 0-0.88-0.086-1.288-0.254s-0.78-0.415-1.092-0.726c-0.313-0.311-0.56-0.68-0.729-1.086s-0.256-0.842-0.255-1.281v-8.368h-0z"></path>
<path fill="#fff" style="fill: var(--color1, #fff)" opacity="0.2" d="M11.803 6.695c-0.442 0-0.88-0.086-1.288-0.254s-0.78-0.415-1.092-0.726c-0.313-0.311-0.56-0.68-0.729-1.086s-0.256-0.842-0.255-1.281c-0-1.851 1.504-3.347 3.365-3.347s3.365 1.496 3.365 3.347v3.347h-3.365zM11.803 8.394c1.861 0 3.365 1.496 3.365 3.347s-1.504 3.347-3.365 3.347h-8.438c-0.442 0-0.88-0.086-1.288-0.254s-0.78-0.415-1.092-0.726c-0.313-0.311-0.56-0.68-0.729-1.086s-0.256-0.842-0.255-1.281c0-1.851 1.504-3.347 3.365-3.347l8.438-0z"></path>
<path fill="#fff" style="fill: var(--color1, #fff)" opacity="0.2" d="M25.288 11.741c0-1.851 1.504-3.347 3.365-3.347s3.365 1.496 3.365 3.347-1.504 3.347-3.365 3.347h-3.365v-3.347zM23.605 11.741c0 1.851-1.504 3.347-3.365 3.347-0.442 0-0.88-0.086-1.288-0.254s-0.78-0.415-1.092-0.726c-0.313-0.311-0.56-0.68-0.729-1.086s-0.256-0.842-0.255-1.281v-8.394c0-1.851 1.504-3.347 3.365-3.347s3.365 1.496 3.365 3.347v8.394l-0-0z"></path>
<path fill="#fff" style="fill: var(--color1, #fff)" opacity="0.2" d="M20.24 25.155c1.861 0 3.365 1.496 3.365 3.347s-1.504 3.347-3.365 3.347c-0.442 0-0.88-0.086-1.288-0.254s-0.78-0.415-1.092-0.726c-0.313-0.311-0.56-0.68-0.729-1.087s-0.256-0.842-0.255-1.281v-3.347h3.365zM20.24 23.482c-0.442 0-0.88-0.086-1.288-0.254s-0.78-0.415-1.092-0.726c-0.313-0.311-0.56-0.68-0.729-1.086s-0.256-0.842-0.255-1.281c0-1.851 1.504-3.347 3.365-3.347h8.438c1.861 0 3.365 1.496 3.365 3.347s-1.504 3.347-3.365 3.347l-8.438-0z"></path>
</symbol>
<symbol id="icon-toolbox_app" viewBox="0 0 32 32">
<path fill="#000001" style="fill: var(--color21, #000001)" opacity="0.78" d="M16 32.076l14-8.011v-16.008l-14 8.010v16.009z"></path>
<path fill="#fff" style="fill: var(--color1, #fff)" opacity="0.78" d="M19 24.556v2.444l6-3.556v-2.444l-6 3.556z"></path>
<path fill="#000" style="fill: var(--color11, #000)" opacity="0.78" d="M16 0.076l-14 7.981v16.008l14 8.011v-16.009l14-8.010-14-7.981z"></path>
</symbol>
<symbol id="icon-twitter" viewBox="0 0 32 32">
<path fill="#fff" style="fill: var(--color1, #fff)" opacity="0.78" d="M26.177 10.663c0.017 0.233 0.017 0.465 0.017 0.697 0 7.1-5.404 15.281-15.28 15.281-3.043 0-5.869-0.881-8.248-2.412 0.432 0.049 0.848 0.067 1.297 0.067 2.417 0.006 4.766-0.802 6.668-2.295-1.121-0.020-2.207-0.39-3.108-1.058s-1.57-1.6-1.915-2.666c0.332 0.049 0.665 0.083 1.015 0.083 0.481 0 0.965-0.067 1.415-0.183-1.216-0.246-2.31-0.905-3.095-1.866s-1.213-2.164-1.212-3.405v-0.067c0.716 0.399 1.547 0.648 2.427 0.681-0.737-0.49-1.342-1.155-1.76-1.935s-0.636-1.652-0.635-2.537c0-0.997 0.265-1.912 0.731-2.709 1.35 1.66 3.033 3.018 4.94 3.986s3.998 1.525 6.134 1.634c-0.083-0.4-0.133-0.815-0.133-1.231-0-0.705 0.138-1.404 0.408-2.056s0.665-1.244 1.164-1.743 1.091-0.894 1.743-1.164c0.652-0.27 1.35-0.408 2.056-0.408 1.547 0 2.943 0.648 3.924 1.696 1.202-0.232 2.355-0.671 3.408-1.297-0.401 1.241-1.24 2.293-2.361 2.96 1.066-0.122 2.109-0.402 3.092-0.832-0.735 1.071-1.645 2.010-2.692 2.777z"></path>
</symbol>
<symbol id="icon-wordpress" viewBox="0 0 141 32">
<path fill="#fff" style="fill: var(--color1, #fff)" opacity="0.2" d="M81.83 12.506h-5.554v0.585c1.737 0 2.017 0.369 2.017 2.556v3.942c0 2.186-0.279 2.587-2.017 2.587-1.334-0.185-2.233-0.893-3.475-2.248l-1.427-1.54c1.923-0.339 2.947-1.54 2.947-2.895 0-1.693-1.457-2.987-4.188-2.987h-5.461v0.585c1.737 0 2.017 0.369 2.017 2.556v3.942c0 2.186-0.279 2.587-2.017 2.587v0.585h6.174v-0.585c-1.737 0-2.016-0.4-2.016-2.587v-1.108h0.527l3.444 4.28h9.029c4.437 0 6.361-2.34 6.361-5.143s-1.924-5.112-6.361-5.112zM68.83 17.526v-4.095h1.272c1.396 0 2.017 0.955 2.017 2.063 0 1.078-0.621 2.032-2.017 2.032h-1.272zM81.923 21.807h-0.217c-1.116 0-1.271-0.277-1.271-1.694v-6.683h1.489c3.227 0 3.816 2.34 3.816 4.157 0 1.878-0.589 4.219-3.816 4.219zM47.39 18.666l2.141-6.283c0.621-1.817 0.341-2.34-1.644-2.34v-0.616h5.833v0.616c-1.955 0-2.42 0.462-3.196 2.71l-3.538 10.532h-0.403l-3.165-9.639-3.227 9.639h-0.403l-3.444-10.532c-0.745-2.248-1.241-2.71-3.041-2.71v-0.616h6.888v0.616c-1.831 0-2.328 0.431-1.675 2.34l2.079 6.282 3.134-9.239h0.59l3.072 9.239zM57.939 23.161c-3.413 0-6.205-2.494-6.205-5.543 0-3.018 2.793-5.512 6.205-5.512s6.205 2.495 6.205 5.512c0 3.049-2.792 5.543-6.205 5.543zM57.939 13.061c-2.854 0-3.847 2.556-3.847 4.557 0 2.033 0.993 4.558 3.847 4.558 2.886 0 3.879-2.525 3.879-4.558 0-2.002-0.993-4.557-3.879-4.557z"></path>
<path fill="#fff" style="fill: var(--color1, #fff)" opacity="0.2" d="M95.854 22.145v0.616h-7.105v-0.616c2.079 0 2.452-0.523 2.452-3.603v-4.927c0-3.080-0.372-3.572-2.452-3.572v-0.616h6.423c3.196 0 4.964 1.632 4.964 3.819 0 2.125-1.769 3.788-4.964 3.788h-1.769v1.508c0 3.080 0.372 3.604 2.452 3.604zM95.171 10.535h-1.769v5.359h1.769c1.737 0 2.545-1.201 2.545-2.648 0-1.478-0.807-2.71-2.545-2.71zM121.451 19.866l-0.155 0.554c-0.279 1.016-0.621 1.386-2.824 1.386h-0.435c-1.612 0-1.892-0.37-1.892-2.556v-1.417c2.42 0 2.607 0.215 2.607 1.817h0.59v-4.589h-0.59c0 1.601-0.186 1.817-2.607 1.817v-3.449h1.706c2.204 0 2.545 0.37 2.824 1.386l0.156 0.585h0.496l-0.217-2.895h-9.123v0.585c1.737 0 2.017 0.369 2.017 2.556v3.942c0 2-0.238 2.504-1.607 2.576-1.302-0.197-2.196-0.902-3.419-2.237l-1.428-1.54c1.924-0.339 2.948-1.54 2.948-2.895 0-1.693-1.459-2.987-4.189-2.987h-5.46v0.585c1.737 0 2.017 0.369 2.017 2.556v3.942c0 2.186-0.279 2.587-2.017 2.587v0.585h6.175v-0.585c-1.737 0-2.017-0.4-2.017-2.587v-1.108h0.527l3.444 4.28h12.752l0.187-2.894-0.466-0zM105.007 17.526v-4.095h1.272c1.396 0 2.017 0.955 2.017 2.063 0 1.078-0.621 2.032-2.017 2.032h-1.272zM127.749 23.161c-1.241 0-2.327-0.647-2.793-1.047-0.155 0.154-0.434 0.616-0.496 1.047h-0.59v-4.249h0.621c0.248 2.032 1.675 3.233 3.506 3.233 0.993 0 1.799-0.554 1.799-1.478 0-0.8-0.713-1.417-1.985-2.001l-1.769-0.831c-1.241-0.586-2.172-1.602-2.172-2.957 0-1.478 1.396-2.741 3.32-2.741 1.025 0 1.892 0.37 2.42 0.801 0.155-0.123 0.311-0.462 0.404-0.832h0.59v3.635h-0.652c-0.218-1.448-1.024-2.649-2.668-2.649-0.869 0-1.676 0.493-1.676 1.263 0 0.8 0.652 1.231 2.142 1.909l1.705 0.831c1.49 0.708 2.079 1.848 2.079 2.772 0 1.94-1.707 3.295-3.785 3.295v-0zM137.305 23.161c-1.241 0-2.327-0.647-2.793-1.047-0.155 0.154-0.434 0.616-0.496 1.047h-0.589v-4.249h0.62c0.248 2.032 1.676 3.233 3.506 3.233 0.993 0 1.8-0.554 1.8-1.478 0-0.8-0.713-1.417-1.986-2.001l-1.769-0.831c-1.241-0.586-2.172-1.602-2.172-2.957 0-1.478 1.396-2.741 3.32-2.741 1.024 0 1.892 0.37 2.42 0.801 0.155-0.123 0.31-0.462 0.403-0.832h0.59v3.635h-0.652c-0.217-1.448-1.024-2.649-2.668-2.649-0.868 0-1.676 0.493-1.676 1.263 0 0.8 0.652 1.231 2.141 1.909l1.706 0.831c1.489 0.708 2.079 1.848 2.079 2.772 0 1.94-1.706 3.295-3.785 3.295v-0z"></path>
<path fill="#fff" style="fill: var(--color1, #fff)" opacity="0.2" d="M2.275 15.886c0 5.395 3.159 10.056 7.739 12.266l-6.55-17.812c-0.785 1.745-1.19 3.635-1.189 5.547v-0zM25.276 15.198c0-1.684-0.61-2.851-1.133-3.759-0.696-1.122-1.348-2.073-1.348-3.196 0-1.253 0.957-2.419 2.306-2.419 0.061 0 0.118 0.008 0.178 0.011-2.443-2.221-5.698-3.577-9.273-3.577-4.797 0-9.017 2.443-11.473 6.143 0.322 0.009 0.626 0.016 0.884 0.016 1.436 0 3.66-0.173 3.66-0.173 0.74-0.043 0.827 1.036 0.088 1.123 0 0-0.744 0.087-1.572 0.13l5 14.762 3.005-8.945-2.139-5.817c-0.739-0.043-1.44-0.13-1.44-0.13-0.74-0.043-0.653-1.166 0.086-1.122 0 0 2.268 0.173 3.617 0.173 1.436 0 3.66-0.173 3.66-0.173 0.74-0.043 0.828 1.035 0.088 1.122 0 0-0.745 0.087-1.572 0.13l4.962 14.65 1.37-4.543c0.594-1.885 1.046-3.239 1.046-4.405zM16.247 17.078l-4.12 11.882c1.26 0.368 2.566 0.555 3.879 0.555 1.553 0 3.095-0.261 4.56-0.773-0.038-0.060-0.071-0.122-0.098-0.188l-4.221-11.477zM28.055 9.348c0.059 0.434 0.093 0.9 0.093 1.401 0 1.383-0.26 2.937-1.044 4.881l-4.194 12.036c4.082-2.363 6.828-6.752 6.828-11.78 0-2.37-0.61-4.598-1.682-6.539zM16.006 0c-8.826 0-16.006 7.126-16.006 15.886 0 8.761 7.181 15.887 16.006 15.887s16.007-7.126 16.007-15.887c0-8.76-7.182-15.886-16.007-15.886zM16.006 31.045c-8.421 0-15.273-6.8-15.273-15.159s6.851-15.158 15.273-15.158c8.421 0 15.272 6.8 15.272 15.158s-6.851 15.159-15.272 15.159z"></path>
</symbol>
<symbol id="icon-zeplin" viewBox="0 0 41 32">
<path fill="#fdbd39" style="fill: var(--color22, #fdbd39)" d="M6.277 22.063l-2.131 0.765-0.114 6.23 7.375-2.648c-2.53-0.835-4.377-2.305-5.13-4.347z"></path>
<path fill="#f69833" style="fill: var(--color23, #f69833)" d="M7.392 15.473l-7.392 2.655 4.147 4.7 2.131-0.765c-0.751-2.036-0.288-4.338 1.115-6.59z"></path>
<path fill="#fecf33" style="fill: var(--color24, #fecf33)" d="M19.833 6.484c-9.414 3.38-15.482 10.355-13.555 15.579l34.090-12.241c-1.927-5.224-11.121-6.719-20.534-3.338z"></path>
<path fill="#ee6723" style="fill: var(--color25, #ee6723)" d="M26.812 25.401c9.414-3.38 15.494-10.325 13.555-15.579l-34.090 12.241c1.939 5.255 11.121 6.719 20.534 3.339z"></path>
<path fill="#f69833" style="fill: var(--color23, #f69833)" d="M40.367 9.822l-34.090 12.241c0.668 1.809 3.213 2.701 6.785 2.701 3.482 0 7.939-0.847 12.586-2.515 9.414-3.38 16.037-8.853 14.718-12.426z"></path>
<path fill="#fdbd39" style="fill: var(--color22, #fdbd39)" d="M33.582 7.121c-3.482 0-7.939 0.847-12.586 2.515-9.414 3.38-16.037 8.853-14.718 12.426l34.090-12.241c-0.667-1.809-3.213-2.701-6.785-2.701z"></path>
<path fill="#ee6723" style="fill: var(--color25, #ee6723)" d="M31.7 29.388h-0c-1.003 0-2.483-0.891-4.398-2.647-2.266-2.078-4.862-5.121-7.309-8.569s-4.458-6.895-5.662-9.707c-1.312-3.064-1.499-4.948-0.556-5.599 0.207-0.143 0.456-0.215 0.741-0.215 0.767 0 2.262 0.561 5.026 3.236l0.060 0.058-0.008 0.083c-0.019 0.192-0.036 0.386-0.052 0.576l-0.031 0.378-0.271-0.269c-2.978-2.949-4.289-3.267-4.714-3.267-0.121 0-0.218 0.024-0.287 0.072-0.409 0.283-0.435 1.666 0.837 4.636 1.183 2.761 3.164 6.156 5.58 9.56s4.972 6.402 7.197 8.443c2.4 2.2 3.481 2.438 3.835 2.438 0.122 0 0.221-0.026 0.295-0.077 0.432-0.298 0.432-1.78-0.986-4.977l-0.065-0.147 0.143-0.077c0.143-0.077 0.28-0.152 0.41-0.224l0.171-0.095 0.079 0.177c1.006 2.265 1.946 5.144 0.713 5.996-0.208 0.143-0.458 0.216-0.745 0.216zM31.699 29.039v0z"></path>
<path fill="#ee6723" style="fill: var(--color25, #ee6723)" d="M27.040 25.306l-0.014 0.174c-0.238 2.895-0.865 6.375-2.498 6.515-0.033 0.003-0.067 0.004-0.101 0.004-1.11 0-2.16-1.563-3.121-4.646-0.909-2.917-1.615-6.833-1.987-11.027s-0.366-8.171 0.016-11.199c0.416-3.301 1.209-5.024 2.356-5.123 0.034-0.003 0.069-0.005 0.104-0.005 0.805 0 2.019 0.896 3.261 5.070l-0.811 0.154c-0.415-1.395-0.867-2.529-1.316-3.309-0.415-0.721-0.819-1.118-1.137-1.118-0.010 0-0.021 0-0.031 0.001-0.497 0.043-1.221 1.228-1.625 4.428-0.375 2.975-0.38 6.892-0.013 11.032s1.061 7.997 1.954 10.862c0.4 1.283 0.839 2.34 1.268 3.058 0.396 0.662 0.78 1.026 1.080 1.026 0.010 0 0.021-0 0.031-0.001 0.476-0.041 1.372-1.274 1.749-5.614l0.834-0.281z"></path>
</symbol>
<symbol id="icon-search" viewBox="0 0 33 32">
<path fill="none" stroke="#fff" style="stroke: var(--color1, #fff)" stroke-linejoin="round" stroke-linecap="round" stroke-miterlimit="4" stroke-width="2.6667" d="M14.667 25.333c5.891 0 10.667-4.776 10.667-10.667s-4.776-10.667-10.667-10.667c-5.891 0-10.667 4.776-10.667 10.667s4.776 10.667 10.667 10.667z"></path>
<path fill="none" stroke="#fff" style="stroke: var(--color1, #fff)" stroke-linejoin="round" stroke-linecap="round" stroke-miterlimit="4" stroke-width="2.6667" d="M28 28l-5.8-5.8"></path>
</symbol>
</defs>
</svg>